<?xml version="1.0" standalone="no"?>
<!DOCTYPE svg PUBLIC "-//W3C//DTD SVG 1.1//EN" "http://www.w3.org/Graphics/SVG/1.1/DTD/svg11.dtd" >
<!--
2013-9-30: Created.
-->
<svg>
<metadata>
Created by iconfont
</metadata>
<defs>

<font id="iconfont" horiz-adv-x="1024" >
  <font-face
    font-family="iconfont"
    font-weight="500"
    font-stretch="normal"
    units-per-em="1024"
    ascent="896"
    descent="-128"
  />
    <missing-glyph />
    
    <glyph glyph-name="chexiao" unicode="&#58987;" d="M127.768 576.045l317.215-314.501V452.1c96.082 0 340.72-2.177 340.72-261.432 0-135.757-93.429-249.023-217.643-275.213 199.566 27.922 353.908 202.337 353.908 415.654 0 396.293-410.793 399.604-476.985 399.604V892.93L127.768 576.045z"  horiz-adv-x="1024" />

    
    <glyph glyph-name="zhinan" unicode="&#59037;" d="M512 896C230.4 896 0 665.6 0 384s230.4-512 512-512 512 230.4 512 512S793.6 896 512 896z m72.533333-874.666667h-145.066666v145.066667h145.066666v-145.066667z m72.533334 354.133334c-55.466667-38.4-72.533333-72.533333-68.266667-110.933334v-25.6h-145.066667v34.133334c-4.266667 64 25.6 110.933333 81.066667 149.333333 51.2 38.4 76.8 76.8 76.8 115.2-4.266667 42.666667-29.866667 68.266667-76.8 72.533333-55.466667 0-93.866667-38.4-106.666667-115.2l-153.6 29.866667c25.6 145.066667 119.466667 217.6 277.333334 213.333333 132.266667-8.533333 204.8-68.266667 217.6-179.2 4.266667-72.533333-21.333333-132.266667-102.4-183.466666z"  horiz-adv-x="1024" />

    
    <glyph glyph-name="jiesuo" unicode="&#58984;" d="M1101.888 448V615.488C1101.408 648.992 1089.312 816 896 816s-205.376-167.008-205.856-199.968V448H832v-576H0V448h607.808V616.032S608 896 896 896s288.224-279.968 288.224-279.968V448h-82.336zM416 272a81.664 81.664 0 0 1-83.2-80 79.264 79.264 0 0 1 41.6-68.928v-131.2h83.2v131.2A79.264 79.264 0 0 1 499.2 192a81.632 81.632 0 0 1-83.2 80z"  horiz-adv-x="1184" />

    
    <glyph glyph-name="jiesuo1" unicode="&#59118;" d="M663.771429 632.685714v4.608a159.817143 159.817143 0 0 1-159.012572 154.697143c-85.577143 0-155.794286-68.315429-159.012571-154.697143v-167.204571H663.771429v0.073143h99.035428v-0.073143h73.142857c16.822857 0 33.060571-6.729143 45.056-18.797714a64.585143 64.585143 0 0 0 18.651429-45.494858v-469.430857a64.585143 64.585143 0 0 0-18.651429-45.494857 63.414857 63.414857 0 0 0-45.056-18.870857H173.494857a64.073143 64.073143 0 0 0-63.780571 64.365714V405.796571c0 35.474286 28.525714 64.292571 63.780571 64.292572h72.996572V641.462857C249.782857 782.994286 364.397714 896 504.685714 896c140.214857 0 254.829714-113.005714 258.194286-254.537143v-20.260571a49.517714 49.517714 0 1 0-99.108571 0V632.685714z m-123.172572-473.819428A79.945143 79.945143 0 0 1 504.685714 309.906286a79.213714 79.213714 0 0 1-77.238857-61.293715 80.091429 80.091429 0 0 1 41.472-89.892571v-102.4c0-4.681143 3.803429-8.484571 8.411429-8.484571h54.857143a8.484571 8.484571 0 0 1 8.411428 8.411428v102.546286z"  horiz-adv-x="1024" />

    
    <glyph glyph-name="suo_huabanfuben" unicode="&#58986;" d="M824 497h-90.07c-0.11 57.51-0.37 143.87-1 150a206.43 206.43 0 0 1-3.14 20.43c-1.37 6.64-3.09 13.28-5.11 19.74s-4.34 12.76-7 18.93-5.52 12.17-8.71 18-6.63 11.5-10.34 17-7.63 10.73-11.82 15.8-8.65 10-13.29 14.62-9.56 9.11-14.62 13.29-10.4 8.19-15.84 11.86-11.18 7.19-17 10.34-11.9 6.11-18 8.71-12.54 5-18.92 7-13.11 3.74-19.75 5.11A205.3 205.3 0 0 1 528 832h-32a205.3 205.3 0 0 1-41.41-4.21 203.67 203.67 0 0 1-19.75-5.11c-6.38-2-12.75-4.34-18.92-7s-12.17-5.52-18-8.71-11.5-6.63-17-10.34-10.75-7.63-15.82-11.82-10-8.65-14.62-13.29-9.11-9.56-13.29-14.62-8.18-10.4-11.86-15.84-7.19-11.18-10.34-17-6.12-11.9-8.71-18-5-12.54-7-18.93a203.48 203.48 0 0 1-5.11-19.74A205.3 205.3 0 0 1 290 626v-129h-90a40.12 40.12 0 0 1-40-40v-481a40.12 40.12 0 0 1 40-40h624a40.12 40.12 0 0 1 40 40V457a40.12 40.12 0 0 1-40 40zM362 626a132.24 132.24 0 0 0 2.73 26.89 130.78 130.78 0 0 0 3.27 12.77 132.718 132.718 0 0 0 10.17 23.97c2.07 3.79 4.32 7.5 6.74 11.06s5 7 7.75 10.36 5.66 6.52 8.69 9.56 6.26 6 9.56 8.69 6.8 5.35 10.36 7.75 7.28 4.69 11.06 6.74 7.73 4 11.7 5.66 8.13 3.22 12.27 4.51a130.78 130.78 0 0 0 12.77 3.31c4.36 0.9 8.81 1.58 13.24 2A134.88 134.88 0 0 0 496 760h32a134.88 134.88 0 0 0 13.65-0.69c4.43-0.46 8.88-1.14 13.24-2s8.59-2 12.77-3.3 8.27-2.82 12.27-4.52 7.91-3.59 11.7-5.66 7.5-4.32 11.06-6.74 7-5 10.35-7.75 6.53-5.66 9.57-8.69 6-6.26 8.69-9.57 5.35-6.79 7.75-10.35 4.69-7.29 6.74-11.06 4-7.73 5.66-11.7 3.22-8.13 4.52-12.27 2.42-8.48 3.3-12.77c0.84-4.06 1.49-8.21 1.94-12.34 0.32-10.7 0.57-89.31 0.7-143.55H362z m185.71-410.51a27.76 27.76 0 0 0 0.29-4v-108A27.58 27.58 0 0 0 520.5 76h-17a27.57 27.57 0 0 0-27.5 27.5v108a27.76 27.76 0 0 0 0.29 4 72 72 0 1 0 71.42 0z"  horiz-adv-x="1024" />

    
    <glyph glyph-name="xiangmu" unicode="&#59611;" d="M57.218678 719.943238l207.16834 0 0-667.590638-207.16834 0 0 667.590638ZM310.473659 650.784112l138.177036 0 0-598.460164-138.177036 0 0 598.460164ZM513.818927 501.183909l130.394792 0 0-448.858938-130.394792 0 0 448.858938ZM103.333972 833.110671l115.105574 0c25.348318 0 45.946448-17.170055 45.946448-38.317701l0-38.45687L57.218678 756.3361 57.218678 794.79297C57.218678 815.939593 77.901743 833.110671 103.333972 833.110671L103.333972 833.110671zM103.333972 833.110671M356.42113 756.3361l46.115294 0c25.403576 0 46.114271-17.170055 46.114271-38.331004l0-38.332027-138.177036 0 0 38.332027C310.473659 739.166045 331.072813 756.3361 356.42113 756.3361L356.42113 756.3361zM356.42113 756.3361M559.797098 625.956657l46.085618 0c25.402553 0 46.087665-17.184381 46.087665-38.443567l0-38.331004L513.818927 549.182087l0 38.331004C513.818927 608.772276 534.390451 625.956657 559.797098 625.956657L559.797098 625.956657zM559.797098 625.956657M944.007643 62.694133l-135.678122-25.767873-111.170962 588.257801 135.786593 25.601074L944.007643 62.694133zM722.900849 737.35377l45.187155 8.54256c24.954345 4.721535 48.447409-8.317433 52.380998-29.127388l7.080256-37.754882-135.673006-25.628704c0 0-3.263323 16.86204-7.196912 37.782511C680.746774 711.934844 697.831894 732.632235 722.900849 737.35377L722.900849 737.35377zM949.739181 32.426783c0 0 3.14769-16.86204 7.082302-37.627992 3.934612-20.795629-13.153578-41.61991-38.108946-46.339398l-45.187155-8.541537c-25.066909-4.722558-48.447409 8.315386-52.380998 29.250184l-7.192819 37.657668L949.739181 32.426783zM949.739181 32.426783M651.97038 13.909034l0-38.331004c0-21.273513-20.685111-38.332027-46.087665-38.332027l-46.085618 0c-25.406646 0-45.978171 17.058514-45.978171 38.332027l0 38.331004L651.97038 13.909034zM651.97038 13.909034M448.651718 13.909034l0-38.331004c0-21.273513-20.711717-38.332027-46.114271-38.332027L356.42113-62.753997c-25.348318 0-45.946448 17.058514-45.946448 38.332027l0 38.331004L448.651718 13.909034zM448.651718 13.909034M264.387018 13.909034l0-38.331004c0-21.273513-20.59813-38.332027-45.946448-38.332027L103.333972-62.753997c-25.432229 0-46.115294 17.058514-46.115294 38.332027l0 38.331004L264.387018 13.909034zM264.387018 13.909034"  horiz-adv-x="1024" />

    
    <glyph glyph-name="svg" unicode="&#58980;" d="M354.401 896c-87.04 0-157.44-70.559-157.44-157.599V462.72H78.72c-21.658 0-39.363-17.7-39.363-39.363V187.04c0-21.658 17.7-39.358 39.363-39.358h118.241V29.6c0-87.04 70.4-157.599 157.44-157.599H827.04c87.04 0 157.598 70.559 157.598 157.599V580.966c0 41.749-38.988 81.93-107.52 149.28L848 759.367l-29.123 29.112C751.54 857.011 711.393 896 669.6 896H354.406z m0-78.72h287.202c28.354-7.091 27.996-42.138 27.996-76.8v-120.161c0-21.658 17.7-39.358 39.362-39.358H827.04c39.388 0 78.878 0.026 78.878-39.362v-512c0-43.32-35.553-78.879-78.878-78.879H354.406c-43.325 0-78.72 35.558-78.72 78.879V147.68h393.918c21.663 0 39.362 17.695 39.362 39.358V423.357c0 21.663-17.7 39.363-39.362 39.363H275.68V738.401c0 43.32 35.395 78.879 78.72 78.879z m-115.2-426.721c17.28 0 32.64-3.2 46.08-9.6l-7.68-18.238c-13.44 5.76-26.24 8.638-38.4 8.638-10.24 0-17.92-2.238-23.04-6.718s-7.68-10.562-7.68-18.242c0-8.96 1.92-15.678 5.76-20.158 4.48-3.84 15.038-9.6 31.678-17.28 17.28-7.04 28.482-14.402 33.602-22.082 5.76-7.04 8.638-16 8.638-26.88 0-14.72-5.12-26.558-15.36-35.518s-24.96-13.44-44.16-13.44c-18.56 0-33.28 2.56-44.16 7.68v21.12c15.36-6.4 30.08-9.6 44.16-9.6 12.8 0 22.082 2.238 27.842 6.718 6.4 4.48 9.6 11.52 9.6 21.12 0 7.68-2.242 14.08-6.722 19.2-3.2 3.2-15.038 9.282-35.518 18.242-13.44 6.4-23.04 13.44-28.8 21.12S186.4 334.24 186.4 346.4c0 13.44 4.48 24.002 13.44 31.682 9.6 8.32 22.722 12.478 39.362 12.478z m295.68 0c17.92 0 33.92-3.2 48-9.6L574.24 360.8c-14.08 7.04-27.838 10.558-41.278 10.558-18.56 0-33.28-6.078-44.16-18.238S472.48 323.36 472.48 300.32s4.802-40.638 14.402-52.798c10.24-11.52 25.6-17.28 46.08-17.28 9.6 0 19.84 1.28 30.72 3.84v51.84H528.16V306.08h57.6v-86.4c-17.92-5.76-37.438-8.638-58.558-8.638-23.68 0-42.562 7.68-56.642 23.04s-21.12 37.76-21.12 67.2c0 28.16 7.362 49.92 22.082 65.28 15.36 16 36.48 23.998 63.36 23.998z m-235.202-1.92h24.002l35.518-111.36c3.2-10.88 6.722-24.32 10.562-40.32 1.92 11.52 5.438 25.282 10.558 41.282L415.84 388.64h23.04L380.314 212.96h-22.068L299.674 388.64z"  horiz-adv-x="1024" />

    
    <glyph glyph-name="svg1" unicode="&#58981;" d="M759.466667 140.544H581.8368c-14.421333 0-26.112-12.475733-26.112-27.869867v-168.618666h28.433067L759.466667 135.560533v4.983467zM759.466667 196.266667v88.183466c0 15.189333 11.4688 27.477333 25.6 27.477334s25.6-12.288 25.6-27.477334v-160.136533c0-7.2192-2.645333-14.1312-7.338667-19.285333L613.154133-102.7072a24.746667 24.746667 0 0 0-18.261333-8.226133H211.626667C146.602667-110.933333 93.866667-54.306133 93.866667 15.547733V752.469333C93.866667 822.306133 146.602667 878.933333 211.626667 878.933333h481.28C757.930667 878.933333 810.666667 822.306133 810.666667 752.452267v-48.930134c0-15.189333-11.4688-27.477333-25.6-27.477333s-25.6 12.288-25.6 27.477333V752.469333c0 39.4752-29.7984 71.492267-66.56 71.492267H211.626667c-36.7616 0-66.56-32.017067-66.56-71.509333v-736.887467c0-39.4752 29.7984-71.492267 66.56-71.492267H503.466667v168.618667C503.466667 158.839467 538.555733 196.266667 581.8368 196.266667H759.466667zM348.996267 622.933333c28.7744 0 50.210133-5.819733 63.880533-17.8176 14.557867-12.680533 20.462933-32.546133 17.442133-59.272533h-39.765333c-0.341333 15.069867-4.642133 26.043733-12.219733 32.546133-7.509333 6.8608-20.599467 9.9328-38.417067 9.9328-15.428267 0-27.477333-2.048-36.608-6.5024-11.332267-5.137067-17.8688-13.704533-20.224-25.361066-2.082133-10.274133 1.655467-18.8416 12.049067-25.002667 4.590933-2.730667 17.578667-7.8848 38.741333-15.086933 31.163733-10.274133 50.7392-18.500267 59.221333-23.978667 18.653867-12.680533 25.736533-30.139733 21.162667-52.753067-4.4544-21.930667-16.571733-39.424-36.266667-52.087466-19.626667-12.3392-45.294933-18.8416-76.458666-18.8416-30.1568 0-52.616533 5.819733-67.037867 17.476266-17.646933 14.3872-24.3712 37.000533-19.746133 68.181334h39.7312c-1.006933-18.500267 2.798933-31.863467 11.810133-39.748267 8.209067-6.8608 22.186667-10.615467 42.3936-10.615467 17.8176 0 32.836267 3.072 44.288 8.9088 11.537067 6.161067 18.602667 14.045867 20.701867 24.32 2.645333 13.021867-3.157333 23.296-16.708267 30.839467-4.3008 2.389333-18.944 7.8848-44.356267 16.093867-28.194133 9.591467-45.653333 16.452267-52.0192 20.565333-16.554667 11.298133-22.459733 27.7504-18.090666 49.322667 4.386133 21.6064 16.776533 38.741333 37.768533 51.063466C299.861333 617.130667 322.594133 622.933333 349.013333 622.933333z m122.504533-4.795733h43.52l26.692267-199.406933h1.024l107.6224 199.406933h43.52l-136.669867-244.6336h-48.298667l-37.410133 244.6336zM827.938133 622.933333c31.522133 0 54.801067-6.8608 70.109867-20.906666 14.6944-13.704533 21.5552-33.911467 20.445867-61.320534H878.08c-0.238933 15.752533-5.410133 27.409067-14.779733 35.293867-9.710933 7.867733-24.0128 11.639467-42.513067 11.639467-22.954667 0-42.6496-7.5264-59.221333-23.296-18.056533-16.452267-29.9008-39.406933-36.010667-69.546667-5.853867-28.791467-3.857067-51.063467 6.024533-66.474667 10.717867-16.452267 30.976-24.661333 60.791467-24.661333 11.639467 0 22.869333 1.365333 33.723733 4.096a140.424533 140.424533 0 0 1 28.672 11.3152l10.222934 50.363733h-64.768l6.9632 34.269867h104.840533l-20.992-103.4752a180.0192 180.0192 0 0 0-49.271467-23.296c-18.926933-5.495467-39.0144-8.226133-60.928-8.226133-39.082667 0-66.730667 12.3392-83.3024 37.000533-15.5648 22.954667-19.456 52.770133-12.0832 89.088 7.441067 36.6592 23.5008 66.798933 48.503467 90.453333C760.337067 610.594133 791.637333 622.933333 827.938133 622.933333z"  horiz-adv-x="1024" />

    
    <glyph glyph-name="rongqi" unicode="&#59210;" d="M450.56 298.666667l-197.973333 112.64c-10.24 6.826667-23.893333 6.826667-34.133334 0L20.48 298.666667c-13.653333-6.826667-20.48-17.066667-20.48-30.72v-221.866667c0-13.653333 6.826667-23.893333 17.066667-30.72l197.973333-112.64c10.24-6.826667 23.893333-6.826667 34.133333 0l197.973334 112.64c10.24 6.826667 17.066667 17.066667 17.066666 30.72v221.866667c3.413333 10.24-3.413333 23.893333-13.653333 30.72zM385.706667 247.466667c0-3.413333-3.413333-3.413333-6.826667-6.826667l-146.773333-75.093333c-3.413333-3.413333-6.826667-3.413333-13.653334 0l-146.773333 75.093333c0 6.826667-3.413333 13.653333 0 20.48 0 3.413333 3.413333 3.413333 6.826667 6.826667L221.866667 349.866667c3.413333 3.413333 10.24 3.413333 13.653333 0l146.773333-85.333334c6.826667 0 10.24-10.24 3.413334-17.066666zM747.52 500.053333V721.92c0 13.653333-6.826667 23.893333-17.066667 30.72L532.48 865.28c-10.24 6.826667-23.893333 6.826667-34.133333 0L296.96 752.64c-10.24-6.826667-17.066667-17.066667-17.066667-30.72v-221.866667c0-13.653333 6.826667-23.893333 17.066667-30.72l197.973333-112.64c10.24-6.826667 23.893333-6.826667 34.133334 0l197.973333 112.64c13.653333 6.826667 20.48 20.48 20.48 30.72z m-78.506667 208.213334c0-3.413333-3.413333-3.413333-6.826666-6.826667l-146.773334-75.093333c-3.413333-3.413333-6.826667-3.413333-13.653333 0l-146.773333 75.093333c-6.826667 3.413333-10.24 10.24-6.826667 17.066667 0 3.413333 3.413333 3.413333 6.826667 6.826666l146.773333 85.333334c3.413333 3.413333 10.24 3.413333 13.653333 0L665.6 725.333333c6.826667-3.413333 6.826667-13.653333 3.413333-17.066666zM1006.933333 298.666667l-197.973333 112.64c-10.24 6.826667-23.893333 6.826667-34.133333 0l-197.973334-112.64c-10.24-6.826667-17.066667-17.066667-17.066666-30.72v-221.866667c0-13.653333 6.826667-23.893333 17.066666-30.72l197.973334-112.64c10.24-6.826667 23.893333-6.826667 34.133333 0l197.973333 112.64c10.24 6.826667 17.066667 17.066667 17.066667 30.72v221.866667c0 13.653333-6.826667 23.893333-17.066667 30.72z m-54.613333-47.786667c0-3.413333-3.413333-3.413333-6.826667-6.826667l-167.253333-75.093333c-3.413333-3.413333-6.826667 0-13.653333 0l-126.293334 75.093333c-6.826667 3.413333-10.24 10.24-3.413333 17.066667 0 3.413333 3.413333 3.413333 3.413333 3.413333L785.066667 349.866667c3.413333 3.413333 10.24 3.413333 13.653333 0l146.773333-81.92c6.826667-3.413333 10.24-13.653333 6.826667-17.066667z"  horiz-adv-x="1024" />

    
    <glyph glyph-name="gongju" unicode="&#58979;" d="M512 896C226.742857 896 0 669.257143 0 384s226.742857-512 512-512c285.257143 0 512 226.742857 512 512S797.257143 896 512 896zM782.628571 120.685714c-14.628571-21.942857-73.142857-14.628571-73.142857-14.628571L402.285714 384c0 0-153.6-87.771429-219.428571 124.342857 0 0-7.314286 21.942857 14.628571 21.942857 0 0 58.514286-80.457143 117.028571-51.2 0 0 58.514286 29.257143 65.828571 102.4 0 0 7.314286 21.942857-65.828571 80.457143 0 0-7.314286 29.257143 29.257143 21.942857 0 0 190.171429-43.885714 138.971429-197.485714l307.2-277.942857C789.942857 193.828571 804.571429 142.628571 782.628571 120.685714z"  horiz-adv-x="1024" />

    
    <glyph glyph-name="html1" unicode="&#59078;" d="M919.415-5.493h-81.67v-20.418c0-56.368-45.691-102.089-102.087-102.089h-632.945c-56.367 0-102.087 45.72-102.087 102.089l0 816.703c0 56.397 45.72 102.088 102.087 102.088h446.046v3.12l2.873-3.12h0.269v-0.309l282.764-305.954h3.082v-3.349l1.405-1.506h-1.405v-240.155h81.67c56.398 0 102.089-45.692 102.089-102.090v-142.923c-0.001-56.369-45.692-102.087-102.090-102.087M551.9 819.603v-130.899c0-56.368 45.719-102.088 102.089-102.088h117.728l-219.817 232.987zM796.912 545.78h-183.759c-56.368 0-102.088 45.72-102.088 102.088v204.176h-367.516c-56.368 0-102.087-45.691-102.087-102.088v-735.031c0-56.367 45.719-102.089 102.087-102.089h551.274c49.37 0 90.574 35.062 100.023 81.671l-549.21-0c-56.368 0-102.088 45.718-102.088 102.086v142.924c0 56.398 45.72 102.090 102.088 102.090h551.275l-0 204.174zM661.255 68.011h34.095l34.816 138.058v-138.058h32.899v175.383h-53.108l-31.463-119.642-31.834 119.642h-53.007v-175.383h32.919v138.058l34.684-138.058zM565.189 213.725v29.668l-139.364 0v-29.668h52.021v-145.714h35.402v145.714h51.941zM290.818 174.366v69.029h-35.402v-175.383h35.402v76.685h69.397v-76.685h35.412v175.383h-35.412v-69.029h-69.397zM928.787 97.562h-88.041v144.389h-35.421v-173.94h123.462v29.551zM288.226 770.234h29.061l-50.516-384.873h-28.502l49.957 384.873zM475.624 545.033l-138.497-111.181v71.85l96.644 70.076-96.644 69.268v71.341l138.497-110.412v-60.943zM80.073 606.485l138.326 110.422v-72.338l-96.495-68.032 96.495-70.585v-71.81l-138.326 110.89v61.452z"  horiz-adv-x="1024" />

    
    <glyph glyph-name="img" unicode="&#59024;" d="M509.875 806.75C269.288 806.75 74.25 611.711 74.25 371.125c0-240.587 195.038-435.625 435.625-435.625S945.5 130.538 945.5 371.125c0 240.586-195.038 435.625-435.625 435.625z m0-809.536c-206.51 0-373.911 167.387-373.911 373.911 0 206.496 167.401 373.911 373.911 373.911s373.911-167.415 373.911-373.911c0-206.524-167.401-373.911-373.911-373.911z m121.824 431.115c-5.361 12.875-18.136 12.649-23.512 0-2.996-7.057-28.523-68.353-54.107-129.905-39.647 96.481-89.63 218.054-96.304 234.245-7.204 17.527-24.419 17.244-31.637 0-8.055-19.172-137.111-332.731-146.088-355.448-6.565-16.647 0.695-38.43 15.656-38.43h432.59c10.083 0 17.599 14.492 11.685 28.843-4.722 11.486-100.129 241.097-108.283 260.695z m-5.657 88.004c32.076 0 58.082 26.007 58.082 58.083S658.118 632.5 626.042 632.5s-58.085-26.007-58.085-58.083 26.009-58.084 58.085-58.084z"  horiz-adv-x="1024" />

    
    <glyph glyph-name="rongqigailan" unicode="&#59230;" d="M468.104777 895.780571c24.356571 2.194286 44.909714-18.432 44.909714-42.861714v-340.406857c0-70.509714 57.051429-127.634286 127.561143-127.634286h340.48c24.356571 0 45.056-20.48 42.861715-44.836571-27.209143-307.931429-331.483429-541.476571-659.090286-446.756572A507.245714 507.245714 0 0 0 21.421349 236.763429C-73.298651 564.297143 160.173349 868.571429 468.104777 895.780571zM644.744777 855.04l5.851429-0.731429a442.587429 442.587429 0 0 0 213.211428-118.125714A437.76 437.76 0 0 0 981.933349 522.971429c4.461714-19.382857-11.410286-37.668571-31.305143-37.668572H676.415634a63.634286 63.634286 0 0 0-63.488 63.488V823.003429c0 19.894857 18.285714 35.693714 37.595429 31.232z"  horiz-adv-x="1024" />

    
    <glyph glyph-name="json01" unicode="&#58976;" d="M512 896C229.2 896 0 666.8 0 384s229.2-512 512-512 512 229.2 512 512S794.8 896 512 896zM512-64C264.6-64 64 136.6 64 384S264.6 832 512 832s448-200.6 448-448S759.4-64 512-64zM262.9 470.6 262.9 367c0-9-0.4-16.6-1.1-22.9-0.8-6.3-2.5-12.7-5.2-19.2-4.5-10.9-11.9-19.4-22.3-25.4-10.3-6.1-22.9-9.1-37.8-9.1-13.4 0-24.6 2.1-33.5 6.3-9 4.2-16.2 11.1-21.7 20.5-2.9 5-5.2 10.8-7 17.4-1.8 6.6-2.7 12.8-2.7 18.8 0 6.3 1.8 11.1 5.3 14.4 3.5 3.3 8 5 13.5 5 5.3 0 9.3-1.5 12-4.6 2.7-3.1 4.8-7.8 6.2-14.3 1.5-6.9 3.1-12.5 4.6-16.6 1.5-4.1 4.1-7.7 7.7-10.7 3.6-3 8.7-4.5 15.4-4.5 17.7 0 26.6 13 26.6 39L222.9 470.6c0 8.1 1.8 14.2 5.3 18.2 3.6 4 8.4 6.1 14.5 6.1 6.2 0 11.1-2 14.8-6.1C261 484.8 262.9 478.7 262.9 470.6zM196.5 280.4c-14.8 0-27.5 2.5-37.8 7.3-10.8 5.1-19.5 13.3-26 24.5-3.3 5.8-6 12.4-8 19.8-2 7.4-3.1 14.6-3.1 21.4 0 9.1 2.8 16.4 8.4 21.7 5.4 5.1 12.3 7.7 20.4 7.7 10.3 0 16.3-4.3 19.5-8 3.9-4.4 6.6-10.5 8.5-18.7 1.4-6.5 2.8-11.6 4.2-15.3 0.9-2.5 2.4-4.6 4.7-6.4 1.7-1.4 4.8-2.2 9-2.2 5.4 0 16.6 0 16.6 29L212.9 470.6c0 10.6 2.6 18.9 7.8 24.8 5.4 6.2 13.1 9.5 22 9.5 9 0 16.7-3.2 22.2-9.4 5.3-5.9 8-14.3 8-24.9L272.9 367c0-9.3-0.4-17.5-1.2-24.1-0.9-7.2-2.9-14.5-5.9-21.8-5.3-12.9-14.2-23-26.4-30.2C227.5 283.9 213.1 280.4 196.5 280.4zM150.4 362.8c-3.8 0-5.6-1.3-6.6-2.2-1.4-1.3-2.1-3.8-2.1-7.2 0-5 0.8-10.4 2.3-16.1 1.6-5.7 3.6-10.8 6.1-15.1 4.5-7.7 10.1-13.1 17.2-16.4 7.6-3.6 17.4-5.4 29.3-5.4 13 0 24 2.6 32.7 7.7 8.5 5 14.4 11.7 18.1 20.6 2.3 5.6 3.9 11.2 4.5 16.5 0.7 5.9 1.1 13.2 1.1 21.7L253 470.6c0 5.4-1 9.4-2.9 11.5-1.2 1.3-3 2.8-7.3 2.8-4.1 0-5.9-1.4-7-2.7-1.9-2.1-2.8-6.1-2.8-11.6l0-109.4c0-42.6-22.9-49-36.6-49-9 0-16.3 2.3-21.7 6.7-5 4.1-8.6 9.1-10.7 14.9-1.7 4.6-3.3 10.5-5 17.9-1.4 6.2-3.1 8.8-3.9 9.8C154 362.6 151.9 362.8 150.4 362.8zM456.6 353.1c0-12-3.1-22.7-9.2-32.2-6.2-9.5-15.2-17-27-22.4-11.9-5.4-25.9-8.1-42.2-8.1-19.5 0-35.6 3.7-48.3 11.1-9 5.3-16.3 12.4-21.9 21.2-5.6 8.9-8.4 17.5-8.4 25.8 0 4.9 1.7 9 5.1 12.5 3.4 3.5 7.7 5.2 12.9 5.2 4.2 0 7.8-1.3 10.7-4 2.9-2.7 5.4-6.7 7.5-12 2.5-6.3 5.2-11.6 8.2-15.8 2.9-4.2 7-7.7 12.3-10.5 5.3-2.7 12.3-4.1 20.9-4.1 11.9 0 21.5 2.8 28.9 8.3 7.4 5.5 11.1 12.4 11.1 20.7 0 6.6-2 11.9-6 16-4 4.1-9.2 7.2-15.5 9.4-6.3 2.2-14.8 4.5-25.4 6.9-14.2 3.3-26.1 7.2-35.7 11.7-9.6 4.5-17.2 10.5-22.8 18.2-5.6 7.7-8.4 17.2-8.4 28.7 0 10.9 3 20.5 8.9 29 5.9 8.5 14.5 14.9 25.8 19.5 11.2 4.5 24.5 6.8 39.7 6.8 12.1 0 22.6-1.5 31.5-4.5 8.9-3 16.2-7 22.1-12 5.8-5 10.1-10.2 12.8-15.7 2.7-5.5 4-10.8 4-16.1 0-4.8-1.7-9.1-5.1-12.9-3.4-3.8-7.6-5.7-12.6-5.7-4.6 0-8.1 1.1-10.5 3.4-2.4 2.3-5 6-7.8 11.3-3.6 7.5-7.9 13.3-13 17.5-5 4.2-13.1 6.3-24.3 6.3-10.3 0-18.7-2.3-25-6.8-6.3-4.5-9.5-10-9.5-16.4 0-4 1.1-7.4 3.2-10.3 2.2-2.9 5.1-5.4 8.9-7.4 3.8-2.1 7.6-3.7 11.5-4.9 3.9-1.2 10.3-2.9 19.2-5.1 11.2-2.6 21.2-5.5 30.3-8.6 9-3.1 16.7-7 23.1-11.5 6.3-4.5 11.3-10.2 14.8-17.1C454.8 371.6 456.6 363.1 456.6 353.1zM378.1 280.4c-21.2 0-39.2 4.2-53.3 12.4-10.4 6.1-18.9 14.4-25.3 24.5-6.6 10.4-10 20.9-10 31.2 0 7.4 2.7 14.2 7.9 19.5 5.2 5.4 12.2 8.2 20 8.2 6.7 0 12.8-2.3 17.5-6.7 4.1-3.8 7.4-8.9 10-15.7 2.2-5.5 4.6-10.1 7.1-13.7 2-2.9 4.8-5.3 8.7-7.3 3.8-2 9.3-3 16.3-3 9.6 0 17.3 2.1 23 6.3 4.9 3.7 7.1 7.6 7.1 12.7 0 5.2-1.8 7.6-3.2 9-2.9 2.9-6.8 5.3-11.6 6.9-6 2-14.2 4.3-24.4 6.6-14.8 3.5-27.5 7.6-37.7 12.3-11.1 5.2-20.1 12.3-26.7 21.4-6.9 9.4-10.4 21-10.4 34.6 0 12.9 3.6 24.6 10.7 34.7 7 10 17.2 17.8 30.2 23 12.4 5 27 7.5 43.4 7.5 13.2 0 24.9-1.7 34.7-5.1 10-3.4 18.5-8.1 25.3-13.9 6.9-5.9 12-12.2 15.3-18.9 3.4-6.8 5.1-13.7 5.1-20.5 0-7.3-2.5-13.8-7.6-19.5-5.3-6-12.2-9.1-20.1-9.1-7.2 0-13.1 2.1-17.4 6.2-3.2 3.1-6.3 7.6-9.6 13.8l-0.2 0.4c-3 6.1-6.4 10.9-10.3 14.1-1.8 1.5-6.5 4-17.9 4-8.2 0-14.6-1.7-19.2-4.9-4.7-3.4-5.3-6.2-5.3-8.3 0-2.3 0.7-3.5 1.2-4.3 1.3-1.7 3.2-3.3 5.7-4.6 3.2-1.7 6.4-3.1 9.6-4.1 3.7-1.1 10-2.8 18.6-5 11.4-2.7 21.9-5.7 31.2-8.9 9.9-3.4 18.5-7.7 25.6-12.8 7.6-5.4 13.7-12.4 17.9-20.6 4.3-8.3 6.4-18.3 6.4-29.9 0-13.9-3.6-26.5-10.8-37.7-7.2-11.1-17.7-19.9-31.3-26.1C411.3 283.4 395.7 280.4 378.1 280.4zM317.3 356.2c-3.2 0-4.7-1.1-5.7-2.2-1.6-1.6-2.2-3.2-2.2-5.5 0-6.4 2.3-13.3 6.9-20.5 4.8-7.6 10.9-13.5 18.6-18 11-6.4 25.6-9.7 43.2-9.7 14.8 0 27.6 2.4 38.1 7.2 10.2 4.6 17.6 10.8 22.8 18.7 5.1 8 7.6 16.7 7.6 26.8 0 8.3-1.4 15.3-4.2 20.7-2.8 5.5-6.7 9.9-11.7 13.5-5.5 3.9-12.5 7.4-20.6 10.2-8.7 3-18.5 5.8-29.3 8.3l-0.2 0c-9.1 2.3-15.6 4-19.6 5.3-4.5 1.4-9 3.3-13.4 5.7-5 2.7-9.1 6.2-12.1 10.2-3.5 4.6-5.2 10.1-5.2 16.2 0 6.7 2.4 16.4 13.7 24.5 8 5.8 18.4 8.7 30.8 8.7 13.7 0 23.7-2.8 30.7-8.6 6.1-5 11.3-12 15.5-20.6 2.9-5.5 4.9-7.7 5.8-8.6 0.2-0.2 1.2-0.6 3.5-0.6 2.2 0 3.6 0.7 5.1 2.3 1.8 2 2.6 3.9 2.6 6.3 0 3.6-1 7.6-3 11.6-2.1 4.2-5.6 8.4-10.3 12.5-4.8 4.1-11.2 7.6-18.8 10.1-7.8 2.6-17.3 4-28.3 4-13.8 0-25.9-2-35.9-6.1-9.5-3.8-16.5-9.1-21.3-16-4.8-6.8-7.1-14.4-7.1-23.3 0-9.3 2.1-16.8 6.5-22.8 4.6-6.4 10.8-11.3 18.9-15 8.9-4.1 20.3-7.8 33.7-11 10.8-2.5 19.7-4.9 26.4-7.1 7.8-2.7 14.3-6.6 19.4-11.8 5.9-6 8.9-13.7 8.9-23 0-11.4-5.2-21.3-15.2-28.7-9.2-6.8-20.9-10.3-34.9-10.3-10.4 0-18.7 1.7-25.5 5.2-6.7 3.5-12.1 8.1-16 13.6-3.3 4.8-6.4 10.8-9.2 17.8-1.9 4.9-3.8 7.2-5 8.4C320.5 355.5 319.5 356.2 317.3 356.2zM577.6 494.9c20.5 0 38.1-4.2 52.8-12.5 14.7-8.3 25.8-20.1 33.4-35.5 7.6-15.3 11.3-33.3 11.3-54 0-15.3-2.1-29.2-6.2-41.7-4.1-12.5-10.3-23.3-18.6-32.5-8.3-9.2-18.4-16.2-30.5-21-12.1-4.9-25.9-7.3-41.4-7.3-15.5 0-29.3 2.5-41.5 7.5-12.2 5-22.4 12-30.6 21.1-8.2 9.1-14.4 20-18.5 32.8-4.2 12.8-6.3 26.6-6.3 41.4 0 15.2 2.2 29.1 6.5 41.8 4.4 12.7 10.7 23.5 19 32.4 8.3 8.9 18.3 15.7 30.2 20.4C549 492.6 562.5 494.9 577.6 494.9zM634.5 393.2c0 14.5-2.3 27-7 37.6-4.7 10.6-11.4 18.6-20 24.1-8.7 5.4-18.6 8.2-29.9 8.2-8 0-15.4-1.5-22.2-4.5-6.8-3-12.6-7.4-17.5-13.2-4.9-5.8-8.8-13.1-11.6-22.1-2.8-8.9-4.2-19-4.2-30.1 0-11.2 1.4-21.4 4.2-30.5 2.8-9.1 6.8-16.6 12-22.6 5.2-6 11.1-10.5 17.8-13.4 6.7-3 14-4.5 22.1-4.5 10.3 0 19.7 2.6 28.3 7.7 8.6 5.1 15.4 13 20.5 23.7C631.9 364.4 634.5 377.6 634.5 393.2zM578.4 280.4c-16.7 0-31.9 2.8-45.3 8.2-13.6 5.5-25.1 13.5-34.3 23.7-9.1 10.1-16 22.3-20.6 36.4-4.5 13.7-6.8 28.7-6.8 44.5 0 16.2 2.4 31.4 7.1 45.1 4.8 14 11.9 26 21.1 35.9 9.3 10 20.6 17.7 33.8 22.9 13 5.2 27.9 7.8 44.2 7.8 22.2 0 41.6-4.6 57.7-13.8 16.4-9.3 29-22.7 37.4-39.8 8.2-16.7 12.4-36.3 12.4-58.4 0-16.3-2.3-31.4-6.7-44.8-4.6-13.8-11.5-25.9-20.7-36.1-9.3-10.3-20.8-18.2-34.2-23.6C610.3 283.1 595.1 280.4 578.4 280.4zM577.6 484.9c-13.8 0-26.1-2.1-36.8-6.4-10.4-4.1-19.4-10.2-26.6-18-7.3-7.8-12.9-17.5-16.8-28.8-4-11.6-6-24.5-6-38.6 0-13.7 1.9-26.6 5.8-38.3 3.7-11.4 9.3-21.2 16.5-29.2 7.1-7.9 16.2-14.2 27-18.5 11-4.5 23.7-6.7 37.8-6.7 14.2 0 26.9 2.2 37.7 6.6 10.6 4.3 19.6 10.5 26.8 18.5 7.3 8.1 12.9 17.8 16.5 29 3.8 11.4 5.7 24.4 5.7 38.5 0 19-3.5 35.7-10.3 49.6-6.7 13.6-16.3 23.8-29.3 31.2C612.3 481.2 596.2 484.9 577.6 484.9zM578.1 312.3c-9.4 0-18.2 1.8-26.1 5.3-8 3.6-15.2 8.9-21.3 16-6 7-10.8 15.8-14 26.2-3.1 10-4.7 21.3-4.7 33.5 0 12.1 1.6 23.3 4.7 33.2 3.2 10.2 7.8 18.8 13.5 25.5 5.9 6.9 13 12.2 21.1 15.8 8 3.6 16.9 5.4 26.2 5.4 13.1 0 24.9-3.3 35.2-9.7 10.4-6.5 18.4-16.1 23.9-28.5 5.2-11.8 7.9-25.9 7.9-41.7 0-17.1-2.9-31.8-8.6-43.8-5.9-12.5-14.1-21.9-24.4-28C601.4 315.3 590.1 312.3 578.1 312.3zM577.6 453.1c-6.6 0-12.7-1.2-18.1-3.7-5.5-2.4-10-5.9-14-10.5-4-4.7-7.3-11-9.7-18.6-2.5-7.9-3.8-17.1-3.8-27.1 0-10.2 1.3-19.4 3.8-27.5 2.4-7.7 5.8-14.1 10-19 4.2-4.9 8.9-8.4 14.3-10.8 5.4-2.4 11.4-3.6 18-3.6 8.5 0 16.1 2.1 23.1 6.3 6.9 4.1 12.3 10.5 16.6 19.4 4.4 9.3 6.7 21.2 6.7 35.2 0 13-2.1 24.3-6.2 33.6-3.9 8.8-9.2 15.2-16.2 19.6C595 450.9 587 453.1 577.6 453.1zM761.6 470.9l77-116.5L838.6 472c0 7.6 1.6 13.4 4.9 17.2 3.3 3.8 7.7 5.7 13.3 5.7 5.8 0 10.3-1.9 13.6-5.7 3.3-3.8 5-9.6 5-17.2l0-155.5c0-17.4-7.2-26-21.6-26-3.6 0-6.8 0.5-9.7 1.6-2.9 1-5.6 2.7-8.1 4.9-2.5 2.2-4.9 4.9-7 7.9-2.2 3-4.3 6.1-6.5 9.2l-75.1 115.2 0-115.9c0-7.6-1.8-13.3-5.3-17.1-3.5-3.9-8-5.8-13.5-5.8-5.7 0-10.2 2-13.6 5.9-3.4 3.9-5.1 9.6-5.1 17.1L709.9 465.9c0 6.5 0.7 11.6 2.2 15.2 1.7 4 4.5 7.4 8.5 9.9 4 2.6 8.2 3.8 12.8 3.8 3.6 0 6.7-0.6 9.2-1.8 2.6-1.2 4.8-2.7 6.7-4.7 1.9-2 3.9-4.5 5.9-7.7C757.3 477.6 759.4 474.3 761.6 470.9zM853.8 280.4c-4.7 0-9.1 0.7-13.1 2.1-4.1 1.5-7.9 3.8-11.4 6.9-3.1 2.7-5.9 5.9-8.5 9.5-2.2 3.1-4.4 6.3-6.6 9.4l-0.1 0.2-56.8 87 0-82.2c0-10.1-2.6-18.1-7.9-23.8-5.4-5.9-12.6-9.1-20.9-9.1-8.5 0-15.8 3.2-21.2 9.3-5 5.8-7.6 13.7-7.6 23.6L699.7 465.9c0 7.8 0.9 14 2.8 18.9l0.1 0.3c2.5 5.9 6.6 10.8 12.3 14.4 5.6 3.6 11.7 5.5 18.2 5.5 5 0 9.5-0.9 13.4-2.7 3.7-1.7 7-4 9.7-6.8 2.4-2.5 4.8-5.6 7.2-9.3 2-3.1 4.1-6.4 6.3-9.8l58.6-88.7L828.3 472c0 10.1 2.5 18 7.3 23.7 5.2 6 12.4 9.2 20.9 9.2 8.6 0 15.9-3.2 21.2-9.2 4.9-5.7 7.4-13.7 7.4-23.8l0-155.5C885.4 283.9 863.3 280.4 853.8 280.4zM830.8 319.6c2.1-3 4.2-6 6.3-9 1.7-2.4 3.6-4.5 5.5-6.3 1.6-1.4 3.1-2.4 4.8-3 1.8-0.6 3.9-1 6.3-1 4.9 0 11.6 0 11.6 16L865.3 472c0 5-0.9 8.8-2.5 10.6-1 1.1-2.5 2.3-6.1 2.3-3.3 0-4.7-1.1-5.7-2.2-1.6-1.9-2.5-5.7-2.5-10.7l0-150.9-95.5 144.5c-2.1 3.4-4.2 6.7-6.2 9.8-1.6 2.6-3.2 4.6-4.7 6.1-1.1 1.1-2.3 1.9-3.7 2.6-1.2 0.6-3 0.9-5.1 0.9-2.6 0-5.1-0.7-7.4-2.2-2.2-1.5-3.7-3.1-4.7-5.3-0.7-1.8-1.4-5.2-1.4-11.5l0-152.6c0-3.4 0.5-8 2.7-10.5 1.1-1.2 2.6-2.4 6.1-2.4 2.7 0 4.5 0.8 6.1 2.5 2.2 2.4 2.7 7 2.7 10.4L737.4 462.9 830.8 319.6z"  horiz-adv-x="1024" />

    
    <glyph glyph-name="jianqu" unicode="&#58988;" d="M938.666667-128H85.333333a85.333333 85.333333 0 0 0-85.333333 85.333333V810.666667a85.333333 85.333333 0 0 0 85.333333 85.333333h853.333334a85.333333 85.333333 0 0 0 85.333333-85.333333v-853.333334a85.333333 85.333333 0 0 0-85.333333-85.333333z m-212.608 418.773333h77.781333a337.578667 337.578667 0 0 0 42.666667-1.792v49.109334a300.288 300.288 0 0 0-42.666667-1.792h-61.952v126.976a257.109333 257.109333 0 0 0 2.048 40.448h-55.808a308.693333 308.693333 0 0 0 2.048-41.216v-135.168a228.437333 228.437333 0 0 0-2.048-37.376c10.922667 0.554667 21.930667 0.768 37.888 0.768zM610.133333 436.48c-0.256-3.456-0.256-3.925333-0.981333-17.066667-0.512-8.064-1.28-27.306667-1.28-33.408v-55.808a279.936 279.936 0 0 0-2.090667-39.68h50.474667a253.269333 253.269333 0 0 0-2.090667 39.68V463.786667a296.064 296.064 0 0 0 2.090667 39.936h-67.84a176.384 176.384 0 0 0-9.472-36.096l-38.144-110.336-38.4 110.336a189.781333 189.781333 0 0 0-9.728 36.096H424.96a358.4 358.4 0 0 0 2.048-39.936v-133.376a280.661333 280.661333 0 0 0-2.048-39.68h50.432a270.848 270.848 0 0 0-2.048 39.68v55.466666c0 13.952-1.066667 34.773333-2.56 50.688 1.28-3.626667 1.28-3.626667 4.266667-12.8 0.725333-1.92 8.533333-25.856 8.533333-27.093333l23.594667-68.266667a195.968 195.968 0 0 0 10.965333-37.845333h44.544a235.477333 235.477333 0 0 0 11.008 37.632l24.832 70.101333c3.157333 8.789333 5.717333 17.834667 10.794667 35.84z m-317.525333-70.997333l27.861333-43.178667c8.533333-13.482667 13.44-22.058667 18.432-31.488h67.882667c-11.093333 13.482667-18.176 22.656-26.112 33.792L324.266667 403.882667 372.224 471.466667c8.533333 12.501333 14.805333 20.352 24.362667 32.256H330.752a211.882667 211.882667 0 0 0-18.645333-33.536l-19.2-29.866667-19.456 29.866667a223.530667 223.530667 0 0 0-18.944 33.792H188.16a404.138667 404.138667 0 0 0 25.173333-33.024l47.786667-67.328-56.32-79.104c-7.296-10.112-12.373333-16.725333-26.325333-33.792h67.797333c6.186667 11.349333 11.605333 20.48 18.688 31.488l27.605333 43.178666z"  horiz-adv-x="1024" />

    
    <glyph glyph-name="xmlxiaoyan" unicode="&#59082;" d="M475.428571 896a475.428571 475.428571 0 1 0 0-950.857143 475.428571 475.428571 0 0 0 0 950.857143z m0-87.771429a387.657143 387.657143 0 1 1 0-775.314285 387.657143 387.657143 0 0 1 0 775.314285zM768 130.633143a43.885714 43.885714 0 0 0 56.027429 4.754286l5.997714-5.12 180.370286-182.491429a43.885714 43.885714 0 0 0-56.32-66.779429l-6.070858 5.12-180.370285 182.418286a43.885714 43.885714 0 0 0 0.365714 62.098286zM236.836571 313.709714l36.790858 53.248 36.571428-53.394285c7.972571-11.702857 21.211429-18.651429 35.474286-18.651429a11.483429 11.483429 0 0 1 9.289143 18.285714L294.765714 395.483429l51.931429 70.217142a11.410286 11.410286 0 0 1-9.142857 18.285715 43.154286 43.154286 0 0 1-35.547429-18.651429l-28.525714-41.325714-28.745143 41.325714a43.373714 43.373714 0 0 1-35.547429 18.651429 11.410286 11.410286 0 0 1-9.216-18.285715l51.931429-70.217142-60.269714-82.139429a11.556571 11.556571 0 0 1 9.289143-18.432 43.52 43.52 0 0 1 35.84 18.797714z m194.779429-4.169143V408.649143c0 13.604571 3.876571 24.868571 11.702857 33.645714a35.84 35.84 0 0 0 29.988572 14.262857c25.819429 0 38.765714-14.921143 38.765714-44.617143v-97.645714a19.382857 19.382857 0 1 1 38.765714 0V411.209143c0 14.116571 3.657143 25.234286 10.971429 33.28a35.108571 35.108571 0 0 0 27.062857 12.068571c15.067429 0 25.819429-3.584 32.182857-10.605714 6.582857-6.875429 9.874286-18.066286 9.874286-33.645714v-98.011429a19.382857 19.382857 0 1 1 38.765714 0v104.594286c0 20.699429-6.363429 37.668571-19.017143 50.834286a64.731429 64.731429 0 0 1-48.274286 19.382857 66.925714 66.925714 0 0 1-32.182857-6.948572 79.725714 79.725714 0 0 1-27.062857-24.868571c-11.702857 21.211429-31.597714 31.817143-59.611428 31.817143-19.529143 0-36.864-8.704-51.931429-25.965715v1.462858a19.382857 19.382857 0 1 1-38.765714 0v-150.308572c0-10.752 8.630857-19.382857 19.382857-19.382857H416.914286a14.628571 14.628571 0 0 1 14.628571 14.628571z m325.851429 4.754286v227.474286a19.382857 19.382857 0 1 1-38.765715 0v-227.474286a19.382857 19.382857 0 1 1 38.765715 0z"  horiz-adv-x="1024" />

    
    <glyph glyph-name="JSON" unicode="&#58977;" d="M0 896m78.769231 0l866.461538 0q78.769231 0 78.769231-78.769231l0-866.461538q0-78.769231-78.769231-78.769231l-866.461538 0q-78.769231 0-78.769231 78.769231l0 866.461538q0 78.769231 78.769231 78.769231ZM160.295385 240.521846c65.220923 0 92.672 21.070769 103.384615 82.313846L302.276923 541.538462H248.950154l-35.406769-202.003693c-7.168-40.172308-16.699077-54.862769-51.672616-54.862769H118.153846l7.561846-44.110769h34.579693z m229.336615 0c46.907077 0 58.840615 5.592615 66.008615 46.946462l4.332308 25.048615c2.402462 13.115077 4.017231 24.260923 4.017231 33.004308 0 22.646154-11.539692 29.420308-46.552616 29.420307H369.742769c-9.137231 0-11.933538 0.787692-11.933538 5.947077 0 1.969231 0.393846 5.159385 1.181538 9.137231l3.190154 17.92c2.756923 15.517538 5.553231 17.880615 21.070769 17.880616h83.889231l16.699077 40.172307H383.251692c-44.898462 0-56.871385-5.159385-64.787692-50.924307l-3.190154-17.880616c-2.363077-13.115077-3.977846-24.260923-3.977846-33.004308 0-22.646154 11.539692-29.420308 46.513231-29.420307h45.725538c9.137231 0 11.933538-0.787692 11.933539-5.947077 0-1.969231-0.393846-5.198769-1.181539-9.176616l-3.584-21.070769c-2.756923-15.478154-5.592615-17.880615-21.070769-17.880615H295.384615l7.168-40.172308h87.04z m201.649231-2.756923c66.441846 0 81.92 14.296615 93.065846 77.902769l10.358154 58.486154c3.544615 20.243692 5.159385 33.398154 5.159384 42.535385 0 38.203077-21.070769 52.066462-71.561846 52.066461h-27.451077c-66.402462 0-81.92-14.296615-93.026461-77.902769l-10.358154-58.446769c-3.544615-20.283077-5.159385-33.437538-5.159385-42.535385 0-38.203077 21.070769-52.105846 71.561846-52.105846h27.451077z m0.787692 40.172308h-17.92c-26.230154 0-34.579692 3.150769-34.579692 20.243692 0 7.168 1.575385 17.092923 4.765538 34.225231l10.358154 58.446769c5.12 29.026462 10.318769 38.163692 40.566154 38.163692h17.880615c25.836308 0 34.579692-3.150769 34.579693-20.283077 0-7.168-1.575385-17.092923-4.765539-34.185846l-10.358154-58.446769c-5.12-29.026462-10.318769-38.203077-40.566154-38.203077z m165.100308-37.415385l32.216615 184.516923h58.052923c18.707692 0 24.654769-2.756923 24.654769-16.699077 0-5.986462-1.181538-15.911385-3.938461-31.428923l-24.300308-136.388923h49.309539l23.867077 136.388923c3.977846 23.079385 6.380308 37.809231 6.380307 48.521846 0 28.632615-15.911385 40.566154-66.835692 40.566154h-109.331692l-39.384616-225.476923h49.309539z"  horiz-adv-x="1024" />

    
    <glyph glyph-name="json" unicode="&#58978;" d="M512 316.416a99.328 99.328 0 0 1-18.944-62.464A102.4 102.4 0 0 1 512 192a59.392 59.392 0 0 1 51.2-24.064 60.928 60.928 0 0 1 51.2 23.04 97.28 97.28 0 0 1 17.92 61.952 104.96 104.96 0 0 1-17.92 64 58.368 58.368 0 0 1-51.2 23.552 60.928 60.928 0 0 1-51.2-24.064zM970.24 464.896h-53.76V680.448L700.416 896H215.552a107.52 107.52 0 0 1-107.52-108.032v-323.072H53.76A53.76 53.76 0 0 1 0 411.136v-323.584a53.76 53.76 0 0 1 53.76-53.76h54.272v-53.76A108.032 108.032 0 0 1 215.552-128h592.896a108.032 108.032 0 0 1 107.52 108.032v53.76h53.76a53.76 53.76 0 0 1 54.272 53.76V411.136a53.76 53.76 0 0 1-53.76 53.76zM161.792 793.6a53.76 53.76 0 0 0 53.76 55.808h431.104V742.4a108.032 108.032 0 0 1 108.032-108.032H862.72v-162.304H161.792z m527.872-537.088a138.24 138.24 0 0 0-35.328-98.304 120.32 120.32 0 0 0-92.16-37.888 119.296 119.296 0 0 0-90.624 36.352 131.072 131.072 0 0 0-34.816 94.208 139.776 139.776 0 0 0 35.84 99.328 122.368 122.368 0 0 0 94.208 38.4 115.712 115.712 0 0 0 89.6-36.864 135.68 135.68 0 0 0 33.28-95.232z m-347.648-44.544a168.448 168.448 0 0 1-47.616 25.6q-60.928 25.6-60.928 75.264a65.536 65.536 0 0 0 27.648 56.32 121.344 121.344 0 0 0 72.704 19.968 179.2 179.2 0 0 0 64-9.728v-51.2a105.984 105.984 0 0 1-60.928 17.92 62.464 62.464 0 0 1-32.768-7.68 22.528 22.528 0 0 1-12.288-19.968 25.6 25.6 0 0 1 8.192-18.432 156.672 156.672 0 0 1 41.472-23.04 135.168 135.168 0 0 0 51.2-34.816 69.12 69.12 0 0 0 14.336-44.032 66.56 66.56 0 0 0-26.624-56.832A124.928 124.928 0 0 0 307.2 120.32a161.28 161.28 0 0 0-73.216 14.336v55.296A108.544 108.544 0 0 1 307.2 163.84a60.416 60.416 0 0 1 33.792 7.68 23.552 23.552 0 0 1 11.264 19.968 28.16 28.16 0 0 1-10.24 20.48zM97.28 120.32A97.28 97.28 0 0 0 60.928 128v51.2a51.2 51.2 0 0 1 32.768-10.752q39.936 0 39.936 60.416V384h55.296v-157.696a117.248 117.248 0 0 0-23.552-78.848A84.992 84.992 0 0 0 97.28 120.32zM862.208-12.8a53.76 53.76 0 0 0-53.76-53.76H215.552a53.76 53.76 0 0 0-53.76 53.76v53.76h700.416z m102.4 137.728h-57.344l-110.08 167.936a192.512 192.512 0 0 0-12.288 20.992 409.6 409.6 0 0 0 0-41.472v-147.456h-51.2V384H793.6l105.984-163.328 12.8-20.48a240.128 240.128 0 0 0 0 35.84V384h51.2z"  horiz-adv-x="1024" />

    
    <glyph glyph-name="XML" unicode="&#61970;" d="M438.857143-98.742857v375.466667h73.142857l107.27619-253.561905h9.752381l112.152381 253.561905h73.142858v-375.466667h-73.142858v234.057143H731.428571l-82.895238-190.171429h-43.885714l-82.895238 190.171429h-9.752381v-234.057143H438.857143zM9.752381 276.72381H97.52381l97.523809-136.533334h4.876191l97.523809 136.533334h82.895238L243.809524 91.428571l146.285714-190.171428H302.32381L195.047619 52.419048h-4.87619l-102.4-151.161905H0l146.285714 195.047619-136.533333 180.419048z m1106.895238-375.466667h-224.304762v375.466667h73.142857v-302.32381h151.161905v-73.142857zM502.247619 783.847619L331.580952 613.180952l170.666667-170.666666-43.885714-87.771429L195.047619 613.180952 458.361905 876.495238l43.885714-92.647619z m92.647619-346.209524l170.666667 170.666667-170.666667 170.666667 43.885714 87.771428L902.095238 603.428571l-263.314286-263.314285-43.885714 97.523809z"  horiz-adv-x="1121" />

    
    <glyph glyph-name="tuichu" unicode="&#58974;" d="M966.83 429.056L762.99 605.76a61.76 61.76 0 0 1-40.897 15.168 60.096 60.096 0 0 1-61.504-58.88 57.92 57.92 0 0 1 20.352-43.84l85.376-74.048H395.821a58.944 58.944 0 1 1 0-117.824h371.2l-85.376-74.048a57.6 57.6 0 0 1-20.352-43.712 60.16 60.16 0 0 1 61.12-59.008 62.592 62.592 0 0 1 40.896 15.168L967.15 341.44a57.6 57.6 0 0 1 0 87.744zM420.59-7.808H162.54V778.24h258.176c35.584 0 64.576 26.368 64.576 58.88S456.43 896 420.717 896H97.965C62.317 896 33.39 869.632 33.39 837.12v-903.872c0-32.512 28.864-58.88 64.576-58.88H420.59c35.584 0 64.576 26.368 64.576 58.88s-28.864 58.944-64.576 58.944z"  horiz-adv-x="1024" />

    
    <glyph glyph-name="shangchuan" unicode="&#58975;" d="M770.406 516.128c-11.585 0-23.17 4.422-32.014 13.265L517.856 749.919c-3.847 3.825-10.082 3.836-13.929-0.011L283.391 529.393c-17.687-17.687-46.34-17.687-64.027 0-17.687 17.676-17.687 46.351 0 64.027L439.9 813.947c39.133 39.133 102.851 39.144 141.984 0.011L802.42 593.421c17.687-17.676 17.687-46.351 0-64.027-8.844-8.844-20.429-13.266-32.014-13.266zM510.891 193.934c-25.005 0-45.279 20.274-45.279 45.279V753.401c0 25.005 20.274 45.279 45.279 45.279 25.005 0 45.279-20.274 45.279-45.279v-514.188c0.001-25.005-20.273-45.279-45.279-45.279zM896.825-74.192H124.958c-55.361 0-100.419 45.058-100.419 100.419V246.764c0 25.005 20.274 45.279 45.279 45.279s45.279-20.274 45.279-45.279v-220.537c0-5.439 4.422-9.861 9.861-9.861h771.867c5.417 0 9.838 4.422 9.838 9.861V246.764c0 25.005 20.274 45.279 45.279 45.279 25.005 0 45.279-20.274 45.279-45.279v-220.537c0.001-55.361-45.035-100.419-100.396-100.419z"  horiz-adv-x="1024" />

    
    <glyph glyph-name="huiche" unicode="&#59167;" d="M426.666667-128L0 213.333333l426.666667 341.333334v-273.066667h640V896H1194.666667v-750.933333H426.666667V-128z"  horiz-adv-x="1194" />

    
    <glyph glyph-name="duiqi-copy" unicode="&#58967;" d="M34.4-107.4v982.801h111.4v-982.801zM284.364 74.014h548.6v-111.4h-548.6zM284.353 316.868h661.399v-111.4h-661.399zM284.502 559.676h548.6v-111.4h-548.6zM284.494 802.529h661.399v-111.4h-661.399z"  horiz-adv-x="1024" />

    
    <glyph glyph-name="duiqi-copy-copy" unicode="&#58968;" d="M989.6 875.4v-982.801h-111.4v982.801zM739.636 693.986h-548.6v111.4h548.6zM739.647 451.132h-661.399v111.4h661.399zM739.498 208.324h-548.6v111.4h548.6zM739.506-34.529h-661.399v111.4h661.399z"  horiz-adv-x="1024" />

    
    <glyph glyph-name="expand" unicode="&#59034;" d="M954.753 17.337999999999965l-216.24 216.308c46.911 61.559 74.816 138.381 74.816 221.75 0 202.28-163.98 366.259-366.259 366.259S80.811 657.6759999999999 80.811 455.396 244.79 89.13699999999994 447.07 89.13699999999994c83.764 0 160.91 28.179 222.614 75.493l216.138-216.208c18.377-18.382 48.453-18.385 66.834-0.008l2.089 2.089C973.127-31.120000000000005 973.13-1.044999999999959 954.753 17.337999999999965zM446.332 181.44100000000003c-151.71 0-274.695 122.984-274.695 274.695 0 151.709 122.984 274.694 274.695 274.694 151.709 0 274.694-122.984 274.694-274.694C721.026 304.42499999999995 598.041 181.44100000000003 446.332 181.44100000000003zM594.046 475.415c-9.699 9.699-21.573 9.246-21.573 9.246l-92.414 0.104-0.105 92.414c0 0 0.454 11.875-9.245 21.573 0 0-7.523 7.342-19.67 7.342 0 0-9.971 1.088-18.763-7.704 0 0-9.608-6.708-9.608-21.03l0-92.53-91.399 0.102c-11.513 1.179-21.755-9.065-21.755-9.065-7.977-7.975-8.158-20.666-8.158-20.666 0-11.15 8.34-18.492 8.34-18.492 10.243-10.242 20.576-9.337 20.576-9.337l92.395 0 0-92.395c0 0-0.905-10.333 9.337-20.576 0 0 7.342-8.338 18.491-8.338 0 0 12.691 0.18 20.667 8.157 0 0 10.243 10.243 9.065 21.755l-0.102 91.399 92.53 0c14.322 0 21.029 9.609 21.029 9.609 8.792 8.792 7.705 18.762 7.705 18.762C601.388 467.893 594.046 475.415 594.046 475.415z"  horiz-adv-x="1024" />

    
    <glyph glyph-name="icon--2" unicode="&#58971;" d="M581.12 476.16h-256c-12.8 0-25.6-10.24-25.6-25.6 0-12.8 10.24-25.6 25.6-25.6h256c12.8 0 25.6 10.24 25.6 25.6s-12.8 25.6-25.6 25.6z m332.8-458.24l-212.48 207.36c56.32 61.44 89.6 140.8 89.6 227.84 0 186.88-153.6 337.92-345.6 337.92S102.4 642.56 102.4 455.68s153.6-337.92 345.6-337.92c81.92 0 158.72 28.16 217.6 76.8l212.48-209.92c10.24-10.24 28.16-10.24 38.4 0 7.68 7.68 7.68 23.04-2.56 33.28z m-465.92 148.48c-161.28 0-291.84 128-291.84 286.72C156.16 611.8399999999999 286.72 742.4 448 742.4c161.28 0 291.84-128 291.84-286.72 0-158.72-130.56-289.28-291.84-289.28z"  horiz-adv-x="1024" />

    
    <glyph glyph-name="yidong" unicode="&#59095;" d="M885.312 441.408L757.248 567.04a32.128 32.128 0 0 1-45.248-0.768 32.128 32.128 0 0 1 0.768-45.248L786.944 448H512.96V721.984l73.408-74.88a32.128 32.128 0 0 1 45.248 0 32.128 32.128 0 0 1 0 45.248L503.424 822.656a32.128 32.128 0 0 1-45.248 0L330.304 696.832a32.128 32.128 0 0 1 0-45.248 32.128 32.128 0 0 1 45.248 0l73.408 72V448H173.056l74.176 73.024a32.064 32.064 0 0 1 0.768 45.248 32.064 32.064 0 0 1-45.248 0.768L74.688 441.408a32.064 32.064 0 0 1-0.832-45.248l128.064-130.432a32.064 32.064 0 0 1 45.248-0.768 32.064 32.064 0 0 1 0.768 45.248L175.232 384h273.664v-274.88l-73.408 73.536a32.128 32.128 0 0 1-45.248 0 32.128 32.128 0 0 1 0-45.248l127.872-128.064a32.064 32.064 0 0 1 45.248 0l128.128 128.064a32.128 32.128 0 0 1 0 45.248 32.128 32.128 0 0 1-45.248 0l-73.408-73.344V384h271.808l-72.768-73.792a32.128 32.128 0 0 1 0.768-45.248 32.128 32.128 0 0 1 45.248 0.768l128.064 130.432a31.936 31.936 0 0 1-0.64 45.248z"  horiz-adv-x="1024" />

    
    <glyph glyph-name="xianshi" unicode="&#58972;" d="M499.93819085 87.12290574999997a529.94829714 529.94829714 0 0 0-478.75040072 298.99806575 29.98817998 29.98817998 0 0 0 0 26.92455538A529.8893808 529.8893808 0 0 0 499.93819085 712.16142394a530.24287605 530.24287605 0 0 0 478.75040074-299.17481339 30.93083443 30.93083443 0 0 0 0-26.92455539 530.24287605 530.24287605 0 0 0-478.75040074-298.93914941z m0 533.30650063a221.05236297 221.05236297 0 0 1-220.87561534-220.75778405 221.11127931 221.11127931 0 0 1 220.87561534-220.87561536 221.05236297 221.05236297 0 0 1 220.75778406 220.87561536 220.99344803 220.99344803 0 0 1-220.75778406 220.69886909z m0-351.19753157a130.61649513 130.61649513 0 0 0-130.4397475 130.43974752 130.61649513 130.61649513 0 0 0 130.4397475 130.49866385 142.51750236 142.51750236 0 0 0 48.95909223-8.89629761l2.47446676-0.47132654a58.91587557 58.91587557 0 0 1-3.12254093-18.91199593 58.91587557 58.91587557 0 0 1 58.91587419-58.91587557 55.79333327 55.79333327 0 0 1 14.19872638 1.76747625 114.53246123 114.53246123 0 0 0 8.95521255-45.01172811 130.61649513 130.61649513 0 0 0-130.38083118-130.55757881z"  horiz-adv-x="1024" />

    
    <glyph glyph-name="yincang" unicode="&#58973;" d="M948.25 477.95a43 43 0 0 1-66.33 54.74 471.16 471.16 0 0 0-92.94-86c-1.13-0.72-2.23-1.49-3.29-2.3A467.56 467.56 0 0 0 520 362a468.77 468.77 0 0 0-121.35 15.76A42.26 42.26 0 0 1 394 379a465.59 465.59 0 0 0-88.11 34.58 473.16 473.16 0 0 0-162.58 138 43 43 0 0 1-69-51.3 557.71 557.71 0 0 1 73.22-80.58 42.59 42.59 0 0 1-3.74-7.6l-45-120a43 43 0 1 1 80.52-30.2L218 365.31a549.12 549.12 0 0 1 48.5-28.18 552.14 552.14 0 0 1 68.84-29.65l-23.54-120.2a43 43 0 0 1 33.92-50.48 43.93 43.93 0 0 1 8.33-0.81 43 43 0 0 1 42.15 34.73l22.46 114.53a559.31 559.31 0 0 1 183.41-3.19l19.63-107.77a43 43 0 1 1 84.6 15.42L686 301.26a551.57 551.57 0 0 1 106.18 45.89l44.28-104a43 43 0 0 1 79.12 33.68L864.82 396a559 559 0 0 1 83.43 81.95z"  horiz-adv-x="1024" />

    
    <glyph glyph-name="houtui" unicode="&#59102;" d="M864.768 417.152H237.568l252.416 252.416c12.8 12.8 12.8 33.28 0 45.568-12.8 12.8-33.28 12.8-45.568 0L136.704 407.424l-1.024-1.024c-1.024-1.024-2.048-2.56-3.072-4.096l-1.536-3.072c-0.512-1.024-1.024-1.536-1.536-2.56-0.512-1.024-0.512-2.56-1.024-3.584 0-1.024-0.512-1.536-0.512-2.56-0.512-2.048-0.512-4.096-0.512-6.144 0-2.048 0-4.096 0.512-6.144 0-1.024 0.512-2.048 1.024-2.56 0.512-1.024 0.512-2.048 1.024-3.072l1.536-3.072c0.512-1.024 1.024-1.536 1.536-2.56 1.024-1.536 2.56-3.584 4.096-5.12l307.2-307.2c12.8-12.8 33.28-12.8 45.568 0 12.8 12.8 12.8 33.28 0 45.568L237.568 352.64h627.2c17.92 0 32.256 14.336 32.256 32.256s-14.336 32.256-32.256 32.256z"  horiz-adv-x="1024" />

    
    <glyph glyph-name="line-arrow-right" unicode="&#58957;" d="M68.46648099 403.66519896l589.95597113-1e-8L658.42245212 349.03964593 68.46648099 349.03964592l2e-8 54.62555303zM632.41712372 567.12841286L950.08450548 380.56185505999997l-317.66738176-191.60889694 0 378.17545474z"  horiz-adv-x="1024" />

    
    <glyph glyph-name="down-jiantou-right" unicode="&#58958;" d="M1017.28884579 361.90890885l-662.73273745-1e-8L354.55610835 423.27305136 1017.28884579 423.27305136l-2e-8-61.36414251zM358.28692148 178.28092890999994L1.43220042 387.86227332l356.85472106 215.24570478 0-424.82704919z"  horiz-adv-x="1024" />

    
    <glyph glyph-name="xiangqing" unicode="&#58955;" d="M238.933 384c0-34.133 28.445-62.578 68.267-62.578s62.578 28.445 62.578 62.578-28.445 62.578-68.267 62.578-62.578-28.445-62.578-62.578z m204.8 0c0-34.133 28.445-62.578 68.267-62.578 34.133 0 68.267 28.445 68.267 62.578S551.822 446.578 512 446.578 443.733 418.133 443.733 384z m210.49 0c0-34.133 28.444-62.578 68.266-62.578s68.267 28.445 68.267 62.578-28.445 62.578-68.267 62.578-68.267-28.445-68.267-62.578zM984.178 583.111C955.733 645.69 921.6 696.89 876.088 748.09s-102.4 85.333-164.977 108.089C648.533 878.933 580.267 896 512 896S375.467 878.933 312.889 856.178C250.31 827.733 199.11 793.6 147.91 748.088s-79.644-102.4-108.089-164.977C11.378 520.533 0 452.267 0 384s11.378-136.533 39.822-199.111C68.267 122.31 102.4 71.11 147.912 19.91s102.4-85.333 164.977-108.089C375.467-110.933 443.733-128 512-128s136.533 11.378 199.111 39.822C773.69-59.733 824.89-25.6 876.09 19.912s85.333 102.4 108.089 164.977C1012.622 247.467 1024 315.733 1024 384s-11.378 136.533-39.822 199.111z m-56.89-375.467c-22.755-51.2-56.888-102.4-96.71-142.222s-91.022-73.955-142.222-96.71c-56.89-22.756-113.778-34.134-176.356-34.134s-119.467 11.378-176.356 34.133c-51.2 22.756-102.4 56.889-142.222 96.711s-73.955 91.022-96.71 142.222C73.955 264.534 62.577 321.422 62.577 384S73.956 503.467 96.71 560.356c22.756 51.2 56.889 102.4 96.711 142.222s91.022 73.955 142.222 96.71C392.534 822.045 449.422 833.423 512 833.423S631.467 822.044 688.356 799.29c51.2-22.756 102.4-56.889 142.222-96.711s73.955-91.022 96.71-142.222c22.756-56.89 34.134-113.778 34.134-176.356s-11.378-119.467-34.133-176.356z"  horiz-adv-x="1024" />

    
    <glyph glyph-name="xiangqing1" unicode="&#58956;" d="M512-128C229.888-128 0 101.888 0 384S229.888 896 512 896s512-229.888 512-512-229.888-512-512-512z m0 972.8C258.048 844.8 51.2 637.952 51.2 384S258.048-76.8 512-76.8 972.8 130.048 972.8 384 765.952 844.8 512 844.8zM506.368 81.92c-20.992-11.776-38.4-17.92-51.712-17.92-11.776 0-20.992 3.584-28.16 10.752-6.656 7.168-10.24 17.408-10.24 30.208 0 40.96 25.088 141.312 75.776 301.056 2.56 7.68 3.584 14.336 3.584 19.968 0 6.656-3.072 9.728-9.216 9.728-6.656 0-14.336-2.56-23.04-7.68-8.704-5.12-27.648-22.016-57.344-50.176L384 394.752c33.792 36.352 64 61.952 91.648 77.312 27.648 15.36 51.2 23.04 70.656 23.04 10.752 0 18.944-2.048 24.576-6.656 5.632-4.608 8.704-10.752 8.704-18.944 0-9.728-10.752-50.176-32.768-121.344-35.328-116.736-53.248-186.88-53.248-210.944 0-4.608 1.024-8.704 3.584-11.776 2.56-3.072 5.12-4.608 7.68-4.608 10.752 0 38.4 20.48 82.432 60.928l19.456-18.944c-45.568-41.984-78.848-69.12-100.352-80.896zM624.64 629.76c-10.24-11.264-21.504-16.384-34.304-16.384-10.24 0-18.432 3.584-25.088 10.24-6.656 6.656-10.24 15.872-10.24 27.136 0 14.848 4.608 27.136 14.848 37.888 9.728 10.24 21.504 15.36 34.816 15.36 10.24 0 18.944-3.584 25.6-10.24 6.656-6.656 10.24-15.36 10.24-26.112-0.512-13.824-5.632-26.624-15.872-37.888z"  horiz-adv-x="1024" />

    
    <glyph glyph-name="selected-rt" unicode="&#58954;" d="M1024-128V737.602C1024 825.14 953.14 896 865.602 896H0l1024-1024zM905.942 724.722L643.313 416.379s-19.084-26.63-45.714 0L483.425 568.606s-15.194 19.084 3.773 34.286c7.656 3.771 19.084 11.429 34.286-3.773l102.746-79.883 251.31 232.116s15.201 15.194 30.401 3.766c7.658-3.766 11.429-15.195 0.001-30.396z m0-285.524"  horiz-adv-x="1024" />

    
    <glyph glyph-name="xuanzhong1" unicode="&#58983;" d="M706 595.7c12.8 15.1 35.4 16.9 50.5 4.1 15.1-12.8 16.9-35.4 4.1-50.5l-304.3-358c-13-15.3-36.1-16.9-51.1-3.6L244.1 331c-14.8 13.1-16.1 35.8-3 50.5 13.1 14.8 35.8 16.1 50.5 3l133.8-118.9L706 595.7z"  horiz-adv-x="1024" />

    
    <glyph glyph-name="fasong2" unicode="&#58945;" d="M535.610374 894.668391C253.243367 894.668391 24.30188 665.797195 24.30188 383.313049 24.30188 100.946039 253.243367-128.007151 535.610374-128.007151 818.035956-128.007151 1046.978592 100.946039 1046.978592 383.313049 1046.978592 665.797195 818.03713 894.668391 535.610374 894.668391L535.610374 894.668391ZM439.430351 114.686043 439.430351 238.135221 514.033993 216.652556 439.430351 114.686043 439.430351 114.686043ZM673.210702 203.275675 446.600224 273.287606 648.916787 512.06964 387.868444 290.413998 175.91163 354.627719 789.946852 651.976368 673.210702 203.275675 673.210702 203.275675Z"  horiz-adv-x="1049" />

    
    <glyph glyph-name="yonghu" unicode="&#58944;" d="M513.024-115.2c-279.04 0-504.832 225.792-504.832 504.832C8.192 668.672 233.984 894.464 513.024 894.464c279.04 0 504.832-226.304 504.832-504.832 0-279.04-226.304-504.832-504.832-504.832z m110.592 323.072l19.968 17.92s5.12 46.08 13.824 62.976c19.456 37.888 40.448 100.864 40.448 100.864s19.968 14.848 19.968 40.448-19.968 40.448-19.968 40.448 7.68 71.68 7.68 121.344c0 104.448-65.536 161.792-183.296 161.792-117.76 0-203.776-48.64-203.776-161.792 0-49.664 15.872-121.344 15.872-121.344s-20.48-14.848-20.48-40.448 20.48-40.448 20.48-40.448 23.552-73.216 40.448-100.864c9.728-16.384 13.824-62.976 13.824-62.976l19.968-17.92s9.728-102.4-19.968-121.344c-26.624-16.896-141.824-39.424-169.472-55.808 1.536-1.536 124.416-107.52 297.472-107.52 172.544 0 295.936 106.496 295.936 108.032-29.696 16.384-141.824 38.4-168.448 54.784-30.208 19.456-20.48 121.856-20.48 121.856z"  horiz-adv-x="1024" />

    
    <glyph glyph-name="renwu" unicode="&#58946;" d="M927.516444 764.586667h-149.731555v-164.295111H223.232V764.586667H90.112c-19.342222 0-33.223111-19.171556-33.223111-38.343111v-815.900445c0-21.902222 16.611556-38.343111 36.067555-38.343111h828.984889c19.456 0 36.067556 16.440889 36.067556 38.343111V726.243556c0 21.902222-16.611556 38.343111-36.067556 38.343111h5.575111z m-135.850666-323.128889l-324.437334-394.24c2.787556-5.461333-5.518222-5.461333-11.093333-2.730667l-235.633778 191.715556c-5.575111 2.673778-5.575111 10.922667-2.844444 16.384l38.855111 49.265777c2.787556 5.461333 11.093333 5.461333 16.668444 2.730667l177.436445-147.854222 277.276444 339.512889c2.730667 8.248889 11.093333 8.248889 16.611556 2.730666l44.373333-38.286222c8.305778-2.787556 11.093333-8.248889 2.787556-19.171555z m-149.731556 372.394666V846.734222C641.934222 876.885333 614.172444 896 583.68 896H414.549333c-30.492444 0-58.197333-19.171556-58.197333-49.265778v-32.881778h-66.56v-164.295111h418.702222V813.852444h-66.56zM500.508444 715.320889a61.155556 61.155556 0 0 0-60.984888 60.188444c0 32.881778 27.704889 60.302222 60.984888 60.302223 33.28 0 60.984889-27.420444 60.984889-60.302223 0-38.286222-27.704889-60.188444-60.984889-60.188444z"  horiz-adv-x="1024" />

    
    <glyph glyph-name="tuxiang" unicode="&#58947;" d="M921.6 835.764706H102.4C45.839059 835.764706 0 789.022118 0 731.376941v-694.753882C0-21.022118 45.839059-67.764706 102.4-67.764706h819.2c56.560941 0 102.4 46.742588 102.4 104.387765V731.376941C1024 789.022118 978.160941 835.764706 921.6 835.764706z m0-694.753882h-51.2s-33.912471 76.679529-102.4 104.387764c-68.487529 27.708235-153.6-104.387765-153.6-104.387764S538.322824 224.677647 460.8 402.070588C383.277176 579.403294 102.4 193.234824 102.4 193.234824V731.376941h819.2v-590.366117z m-230.4 208.835764c42.345412 0 76.8 35.117176 76.8 78.366118 0 43.188706-34.454588 78.305882-76.8 78.305882A77.703529 77.703529 0 0 1 614.4 428.152471c0-43.248941 34.334118-78.305882 76.8-78.305883z"  horiz-adv-x="1024" />

    
    <glyph glyph-name="biaoqian" unicode="&#59081;" d="M299.752727 281.134545c0 21.690182 7.447273 40.401455 22.621091 56.878546l444.788364 444.043636c15.639273 15.546182 37.422545 29.044364 63.488 40.308364a188.043636 188.043636 0 0 0 72.517818 16.570182h258.885818c21.783273 0 40.401455-8.285091 56.040727-23.924364a76.893091 76.893091 0 0 0 23.924364-56.040727v-258.048c0-21.690182-5.213091-46.545455-16.477091-72.610909-11.357091-26.903273-23.924364-47.755636-40.401454-63.301818l-444.881455-444.974546a75.682909 75.682909 0 0 0-56.040727-22.528 80.802909 80.802909 0 0 0-56.878546 22.621091L322.373818 225.093818a81.082182 81.082182 0 0 0-22.621091 56.040727z m687.290182 301.893819a76.055273 76.055273 0 0 1 56.040727-22.993455c21.690182 0 40.401455 7.354182 56.040728 22.993455a76.055273 76.055273 0 0 1 22.993454 56.040727 76.055273 76.055273 0 0 1-22.993454 56.040727 76.055273 76.055273 0 0 1-56.040728 22.993455 76.055273 76.055273 0 0 1-56.040727-22.993455 75.682909 75.682909 0 0 1-22.621091-56.040727 70.469818 70.469818 0 0 1 22.621091-56.040727zM83.781818 338.478545l444.788364 443.485091c15.639273 15.639273 37.422545 29.137455 63.488 40.401455A188.043636 188.043636 0 0 0 664.669091 838.935273h139.915636c-21.783273 0-46.545455-5.213091-72.610909-16.570182-26.903273-11.264-47.755636-23.831273-63.394909-40.401455L223.697455 338.478545a79.406545 79.406545 0 0 1-22.993455-56.971636c0-21.690182 7.447273-40.401455 22.993455-56.040727l291.560727-292.305455a223.418182 223.418182 0 0 0-33.047273-27.834182c-9.122909-6.050909-21.690182-8.285091-36.491636-8.28509a79.406545 79.406545 0 0 0-56.878546 23.086545L83.781818 225.931636a75.682909 75.682909 0 0 0-22.621091 56.040728c0 21.690182 7.447273 39.563636 22.621091 56.506181z"  horiz-adv-x="1303" />

    
    <glyph glyph-name="shexiangtoujinyong" unicode="&#58942;" d="M512 106.154c-20.778 0-41.3 1.73-61.456 5.156l-45.482-112.81 219.76 0-44.926 114.042C557.606 108.32 534.872 106.154 512 106.154zM692.736 339.812c7.878 21.026 12.204 43.772 12.204 67.512 0 106.346-86.516 192.862-192.86 192.862-23.74 0-46.488-4.322-67.51-12.206l39.192-39.192c9.158 1.83 18.624 2.806 28.316 2.806 79.55 0 144.27-64.72 144.27-144.272 0-9.692-0.976-19.156-2.804-28.316L692.736 339.812zM544.77 217.248l-46.476 46.474c-68.568 6.536-123.28 61.246-129.812 129.812l-46.48 46.48c-1.822-10.63-2.784-21.55-2.784-32.694 0-106.346 86.516-192.862 192.86-192.862C523.218 214.462 534.14 215.424 544.77 217.248zM558.882 686.278c0 25.14-20.458 45.592-45.598 45.592-25.134 0-45.588-20.452-45.588-45.592s20.454-45.592 45.588-45.592C538.426 640.686 558.882 661.138 558.882 686.278zM511.998 784.914c84.164 0 163.288-32.778 222.796-92.29 59.512-59.512 92.29-138.634 92.29-222.796 0-56.3-15.02-111.542-43.438-159.754-7.47-12.67-15.834-24.756-24.958-36.216l34.548-34.548c11.89 14.484 22.704 29.88 32.262 46.098 32.82 55.682 50.172 119.454 50.172 184.424 0 49.084-9.622 96.71-28.59 141.562-18.32 43.31-44.536 82.204-77.926 115.594-33.39 33.386-72.288 59.61-115.59 77.928C608.714 823.882 561.086 833.5 512 833.5c-49.084 0-96.712-9.622-141.564-28.588-32.268-13.648-62.078-31.69-88.994-53.806l34.554-34.554C371.534 760.85 439.912 784.914 511.998 784.914zM736-1.5l-58.958 0-49.78 126.37c2.458 0.818 4.896 1.678 7.334 2.548l-38.696 38.696c-27.192-7.488-55.42-11.368-83.904-11.368-84.16 0-163.286 32.776-222.796 92.288-59.512 59.51-92.286 138.634-92.286 222.794 0 28.788 3.838 56.982 11.266 84.008l-38.632 38.63c-14.076-39.24-21.22-80.396-21.22-122.64 0-49.084 9.62-96.708 28.588-141.562 18.318-43.308 44.538-82.204 77.928-115.59 33.392-33.39 72.282-59.614 115.59-77.928 10.636-4.5 21.434-8.464 32.368-11.91l-50.128-124.336L288-1.5c-17.672 0-32-14.326-32-32 0-17.678 14.328-32 32-32l448 0c17.676 0 32 14.322 32 32C768-15.826 753.676-1.5 736-1.5zM405.062-1.5l45.482 112.81c20.156-3.426 40.678-5.156 61.456-5.156 22.872 0 45.606 2.166 67.896 6.388l44.926-114.042L405.062-1.5zM950.534-9.276 118.722 822.536c-12.762 12.76-33.238 12.974-45.734 0.478-12.498-12.498-12.286-32.974 0.476-45.734l831.814-831.814c12.768-12.766 33.238-12.976 45.734-0.48S963.296-22.038 950.534-9.276z"  horiz-adv-x="1024" />

    
    <glyph glyph-name="shexiangtou_jinyong" unicode="&#59150;" d="M718.09024 333.7216c8.99072 23.92064 13.9264 49.80736 13.9264 76.8 0 121.01632-98.65216 219.4432-219.93472 219.4432-27.05408 0-53.00224-4.9152-76.96384-13.88544l44.68736-44.58496a164.98688 164.98688 0 0 0 32.27648 3.19488c90.7264 0 164.51584-73.64608 164.51584-164.1472 0-11.03872-1.10592-21.8112-3.19488-32.21504l44.68736-44.60544zM549.376 194.27328l-53.00224 52.87936c-78.19264 7.43424-140.57472 69.67296-148.02944 147.70176l-53.00224 52.87936a219.5456 219.5456 0 0 1-3.1744-37.19168c0-121.01632 98.65216-219.4432 219.91424-219.4432 12.6976 0 25.16992 1.10592 37.2736 3.1744zM565.4528 727.92064a51.99872 51.99872 0 0 1-103.97696 0 51.99872 51.99872 0 0 1 103.97696 0zM512 840.15104c95.96928 0 186.20416-37.29408 254.0544-105.00096a355.7376 355.7376 0 0 0 105.24672-253.50144c0-64.06144-17.14176-126.91456-49.54112-181.76a358.56384 358.56384 0 0 0-28.4672-41.20576l39.40352-39.3216a413.94176 413.94176 0 0 1 36.78208 52.46976 412.7744 412.7744 0 0 1 57.22112 209.8176 412.34432 412.34432 0 0 1-121.4464 292.57728 413.4912 413.4912 0 0 1-131.82976 88.6784A412.99968 412.99968 0 0 1 512 895.42656c-55.97184 0-110.2848-10.93632-161.42336-32.52224a412.75392 412.75392 0 0 1-101.4784-61.2352l39.40352-39.30112A357.04832 357.04832 0 0 0 512 840.15104zM767.42656-54.62016H700.2112l-56.75008 143.7696c2.80576 0.94208 5.57056 1.92512 8.35584 2.90816l-44.1344 44.032a361.22624 361.22624 0 0 0-95.66208-12.92288c-95.96928 0-186.20416 37.2736-254.0544 105.00096a355.7376 355.7376 0 0 0-105.24672 253.48096c0 32.768 4.38272 64.83968 12.86144 95.58016l-44.05248 43.95008a410.74688 410.74688 0 0 1-24.20736-139.53024 412.2624 412.2624 0 0 1 121.4464-292.57728 413.2864 413.2864 0 0 1 168.73472-102.21568l-57.15968-141.47584h-73.74848a36.4544 36.4544 0 0 1-36.49536-36.39296 36.4544 36.4544 0 0 1 36.49536-36.41344h510.85312a36.4544 36.4544 0 0 1 36.49536 36.41344 36.4544 36.4544 0 0 1-36.49536 36.39296z m-377.36448 0l51.85536 128.36864a418.75456 418.75456 0 0 1 147.49696 1.39264l51.24096-129.76128H390.06208zM1012.06016-63.46752L63.54944 882.95424C48.98816 897.47456 25.64096 897.69984 11.38688 883.5072c-14.25408-14.2336-14.00832-37.51936 0.55296-52.03968l948.51072-946.42176c14.56128-14.5408 37.90848-14.7456 52.16256-0.55296 14.25408 14.2336 14.00832 37.51936-0.55296 52.03968z"  horiz-adv-x="1024" />

    
    <glyph glyph-name="shexiangtou-off" unicode="&#59001;" d="M414.11584 582.0416A147.4048 147.4048 0 0 0 622.24384 373.76l33.4848-33.4848A194.57536 194.57536 0 0 1 380.63104 615.5264zM463.16544 332.8a147.8144 147.8144 0 0 0-90.2656 90.1632L317.45024 478.4128v-6.6048a194.56 194.56 0 0 1 194.56-194.56h6.6048zM43.069494 817.544601l35.407382 35.407382 902.453798-902.453797-35.407382-35.407383-902.453798 902.453798ZM791.56224-72.3456h-96.7168l-89.1392 130.3552a421.1712 421.1712 0 0 1 97.28 34.9184l-37.376 37.5296A374.3232 374.3232 0 0 0 170.65984 625.152l-37.5296 37.5808a424.448 424.448 0 0 1 284.16-604.5184l-89.2928-130.56H232.45824a27.8272 27.8272 0 1 1 0-55.6544h559.104a27.8272 27.8272 0 0 1 0 55.6544z m-396.1856 0l82.944 121.2928q16.64-1.3312 33.6896-1.3312t32.5632 1.2288l82.8928-121.1904zM253.70624 742.4a374.1184 374.1184 0 0 0 528.9472-528.896l35.3792-35.3792A424.192 424.192 0 0 1 218.32704 777.8816z"  horiz-adv-x="1024" />

    
    <glyph glyph-name="guanbishexiangtou" unicode="&#59073;" d="M263.808 593.365333l66.176-66.218666a217.898667 217.898667 0 0 1 278.186667-278.186667l66.218666-66.218667a302.933333 302.933333 0 0 0-95.317333-30.293333l-0.042667-92.970667h152.704a38.4 38.4 0 0 0 38.4-38.4v-7.68a38.4 38.4 0 0 0-38.4-38.4h-392.533333a38.4 38.4 0 0 0-38.4 38.4v7.68a38.4 38.4 0 0 0 38.4 38.4h152.661333v92.928A305.152 305.152 0 0 0 263.808 593.365333z m35.626667 163.413334l537.045333-537.002667a42.666667 42.666667 0 0 0 0-60.330667l-6.058667-6.058666a42.666667 42.666667 0 0 0-60.330666 0L233.088 690.432a42.666667 42.666667 0 0 0 0 60.330667l6.016 6.016a42.666667 42.666667 0 0 0 60.330667 0zM535.466667 759.466667a305.066667 305.066667 0 0 0 271.658666-444.032l-66.176 66.218666a217.898667 217.898667 0 0 1-278.186666 278.186667L396.458667 726.101333A303.786667 303.786667 0 0 0 535.466667 759.466667z m-138.752-299.008l144.810666-144.853334a138.922667 138.922667 0 0 0-144.981333 138.794667l0.170667 6.058667z m138.752 132.864a138.922667 138.922667 0 0 0 138.922666-138.922667l-0.213333-6.016-144.768 144.810667c2.005333 0.085333 4.010667 0.128 6.058667 0.128z"  horiz-adv-x="1024" />

    
    <glyph glyph-name="guanbishexiangtou1" unicode="&#59003;" d="M444.536471 504.169412l168.658823-168.779294c-12.769882-3.975529-26.443294-6.023529-40.96-6.02353l-12.047059 0.542118a130.409412 130.409412 0 0 0-82.642823 38.068706 124.807529 124.807529 0 0 0-39.574588 93.786353c0 15.058824 2.168471 29.214118 6.565647 42.405647zM572.235294 595.064471l12.047059-0.481883c31.623529-2.529882 58.910118-15.299765 82.642823-39.03247 26.624-25.780706 39.574588-56.982588 39.574589-93.786353 0-31.924706-9.697882-59.693176-29.756236-83.305412L489.231059 566.091294A127.036235 127.036235 0 0 0 572.235294 595.004235zM250.157176 698.608941l134.866824-134.927059a208.896 208.896 0 0 1-27.527529-106.61647c0-60.476235 21.443765-111.555765 64.150588-153.47953a215.280941 215.280941 0 0 1 155.407059-63.247058 216.847059 216.847059 0 0 1 105.351529 25.901176l134.927059-134.927059-5.240471-3.915294c4.758588-1.445647 9.276235-2.891294 13.733647-4.457412l79.209412-79.209411c-21.624471-48.971294-160.225882-86.678588-328.041412-86.678589-182.693647 0-330.932706 44.754824-330.932706 99.990589 0 27.407059 36.321882 52.163765 95.232 70.234352a395.565176 395.565176 0 0 0-116.796235 127.036236 394.360471 394.360471 0 0 0-54.814117 202.752c0 73.426824 18.552471 140.468706 54.814117 202.691764 7.951059 13.613176 16.444235 26.503529 25.660235 38.851765zM576.993882 860.641882c73.487059 0 141.312-17.648941 203.715765-53.970823 62.223059-36.141176 112.459294-84.510118 148.781177-146.913883a394.360471 394.360471 0 0 0 54.874352-202.691764c0-73.487059-18.552471-140.528941-54.874352-202.752-15.781647-27.105882-34.213647-51.621647-55.055059-73.547294l-132.638118 132.517647c36.442353 39.996235 54.753882 87.943529 54.753882 143.781647 0 60.416-21.443765 111.495529-64.210823 153.419294A212.389647 212.389647 0 0 1 577.054118 674.635294c-54.994824 0-103.062588-17.709176-143.480471-53.007059L300.694588 754.326588a421.647059 421.647059 0 0 0 71.68 52.284236C434.778353 842.992941 503.567059 860.581647 576.993882 860.581647zM82.040471 760.169412l53.248 53.248 851.847529-851.84753-53.248-53.248z"  horiz-adv-x="1024" />

    
    <glyph glyph-name="164shexiangtou_guanbi" unicode="&#59837;" d="M312.32 77.269333c21.76-11.392 44.416-21.077333 68.096-28.714666l-26.752-39.637334h317.098667l-25.386667 37.717334c23.68 7.296 46.506667 16.768 68.565333 27.989333l57.344-85.034667a34.133333 34.133333 0 0 0-28.288-53.205333H281.429333a34.133333 34.133333 0 0 0-28.288 53.205333zM185.173333 627.242667l54.826667-54.869334a292.010667 292.010667 0 0 1-19.669333-106.069333c0.426667-161.877333 132.650667-293.888 294.741333-294.229333 36.864 0 72.448 6.912 105.6 19.626666l54.954667-54.912a362.794667 362.794667 0 0 0-160-37.248h-0.682667c-202.24 0.426667-366.592 164.522667-367.146667 366.592A362.069333 362.069333 0 0 0 185.173333 627.2z m327.850667 204.032c202.197333-0.384 366.634667-164.522667 367.146667-366.549334a360.96 360.96 0 0 0-88.874667-238.421333l35.413333-35.413333a17.066667 17.066667 0 0 0 0-24.192l-27.093333-27.093334a17.066667 17.066667 0 0 0-24.149333 0L183.338667 731.733333a17.066667 17.066667 0 0 0 0 24.149334l27.093333 27.136a17.066667 17.066667 0 0 0 24.149333 0l40.277334-40.32a361.856 361.856 0 0 0 237.44 88.576z m-188.586667-343.338667l100.565334-100.565333c3.413333-3.84 6.997333-7.381333 10.837333-10.837334l100.522667-100.48c-7.424-0.896-14.72-2.176-22.272-2.176a192.512 192.512 0 0 0-191.786667 191.488c0 7.68 1.28 15.104 2.133333 22.570667z m188.458667 270.805333h-0.597333a290.176 290.176 0 0 1-186.453334-67.029333L399.36 618.24a189.141333 189.141333 0 0 0 114.048 38.613333 192.682667 192.682667 0 0 0 192.128-191.573333 189.312 189.312 0 0 0-38.698667-114.517333l73.386667-73.429334a289.28 289.28 0 0 1 67.413333 187.178667c-0.426667 161.962667-132.693333 293.888-294.741333 294.229333z m0.725333-174.464c-23.125333 0-44.373333-6.656-62.421333-17.92l163.797333-163.754666c11.306667 18.133333 18.005333 39.466667 17.92 62.506666a119.68 119.68 0 0 1-119.296 119.168z"  horiz-adv-x="1024" />

    
    <glyph glyph-name="shipin1" unicode="&#58932;" d="M179.796 526.829c-10.762 0-19.489-8.725-19.489-19.487 0-10.766 8.727-19.489 19.489-19.489 10.764 0 19.489 8.723 19.489 19.489 0 10.762-8.726 19.487-19.489 19.487z m769.18 57.106a19.409 19.409 0 0 1-19.888-0.743L705.996 435.827V546.32c0 43.053-34.904 77.953-77.955 77.953H140.818c-43.053 0-77.953-34.901-77.953-77.953v-389.776c0-43.055 34.901-77.955 77.953-77.955H628.04c43.051 0 77.955 34.901 77.955 77.955v93.93l222.94-149.59a19.454 19.454 0 0 1 19.964-0.877 19.47 19.47 0 0 1 10.239 17.15V566.826a19.473 19.473 0 0 1-10.162 17.109z m-281.96-180.688a19.547 19.547 0 0 1-0.4-3.903v-112.063c0-1.321 0.14-2.624 0.4-3.894v-126.845c0-21.527-17.452-38.98-38.976-38.98H140.818c-21.525 0-38.978 17.452-38.978 38.98V546.32c0 21.525 17.452 38.978 38.978 38.978H628.04c21.523 0 38.976-17.452 38.976-38.978v-143.073z m253.146-249.929L705.996 297.52v91.471l214.166 142.055v-377.728z"  horiz-adv-x="1024" />

    
    <glyph glyph-name="shipin11" unicode="&#58935;" d="M932.14347822 620.62173955c-18.99782578 11.91521777-44.02173955 11.91521777-68.67391289 0l-181.52608711-87.67173955L681.94347823 569.08695645c0 53.94130401-43.88478222 97.82608711-97.82608711 97.8260871L159.82608711 666.91304356c-53.94130401 0-97.82608711-37.70217422-97.82608711-84.05217422l0-381.26739112c0-55.78043467 25.27826045-97.82608711 58.83260888-97.8260871l39.26739112 0 0 39.13043466L120.83260888 142.89782577999995c-3.89347823 0-19.70217422 18.88043467-19.70217421 58.69565244L101.13043467 582.86086934c0 24.35869599 26.88260888 44.92173955 58.69565244 44.92173954l424.29130401 0c32.36086933 0 58.69565244-26.33478223 58.69565244-58.69565244l0-367.49347821c0-32.36086933-26.33478223-58.69565244-58.69565244-58.69565245L282.51956533 142.89782577999995l0-39.13043466 301.59782579 0c53.94130401 0 97.82608711 43.88478222 97.8260871 97.8260871l0 36 181.58478223-88.47391289c12.40434756-6.04565244 24.88695645-9.05869599 36.66521778-9.058696 11.62173955 0 22.53913066 2.93478223 31.96956532 8.84347823C951.12173955 160.78043466999998 962 183.29999999999995 962 210.71086933000004L962 558.7760871099999C962 586.16739112 951.10217422 608.70652177 932.14347822 620.62173955zM922.86956533 210.71086933000004c0-13.61739112-4.18695645-24.04565244-11.46521777-28.60434756-7.31739112-4.53913066-18.50869599-3.73695645-30.73695644 2.21086935l-198.72391289 96.82826044L681.94347823 489.51521777l198.52826044 95.86956533c12.26739112 5.90869599 23.53695644 6.69130401 30.85434756 2.09347823 7.33695644-4.59782578 11.54347822-15.06521777 11.54347822-28.70217422L922.86956533 210.71086933000004zM203.53478222 525.39782578m-28.38913066 0a1.27529297 1.27529297 0 1 1 56.77826045 0 1.27529297 1.27529297 0 1 1-56.77826045 0ZM769.41956533 282.53478223"  horiz-adv-x="1024" />

    
    <glyph glyph-name="shipin12" unicode="&#58936;" d="M164.8 468.8c9.6 0 19.2 3.2 25.6 9.6 6.4 6.4 11.2 14.4 11.2 24s-3.2 17.6-11.2 24c-14.4 12.8-36.8 12.8-51.2 0-8-4.8-11.2-14.4-11.2-24s3.2-17.6 11.2-24c6.4-6.4 16-9.6 25.6-9.6zM988.8 608c-11.2 6.4-25.6 9.6-38.4 9.6-14.4 0-28.8-3.2-43.2-9.6l-198.4-89.6v32c0 59.2-51.2 107.2-115.2 107.2H115.2c-64 0-115.2-48-115.2-107.2V160c0-59.2 51.2-107.2 115.2-107.2h478.4c64 0 115.2 48 115.2 107.2v32l198.4-91.2c14.4-6.4 28.8-9.6 43.2-9.6 14.4 0 27.2 3.2 38.4 9.6 22.4 12.8 35.2 38.4 35.2 68.8v368c0 32-12.8 56-35.2 70.4z m-17.6-70.4v-369.6c0-12.8-4.8-22.4-11.2-27.2-3.2-1.6-6.4-3.2-11.2-3.2-6.4 0-14.4 1.6-19.2 4.8l-222.4 100.8V462.4L928 563.2c6.4 3.2 12.8 4.8 19.2 4.8 4.8 0 8-1.6 11.2-3.2 8-3.2 12.8-12.8 12.8-27.2z m-918.4 11.2c0 32 27.2 57.6 62.4 57.6h478.4c33.6 0 62.4-25.6 62.4-57.6V160c0-32-27.2-57.6-62.4-57.6H115.2C80 102.39999999999998 52.8 128 52.8 160V548.8z"  horiz-adv-x="1024" />

    
    <glyph glyph-name="mokuai" unicode="&#58931;" d="M486.208 526.4c0-64.32-52.16-116.48-116.416-116.48H148.672c-64.32 0-116.416 52.16-116.416 116.48V747.584c0 64.256 52.096 116.416 116.416 116.416h221.12c64.32 0 116.416-52.16 116.416-116.416v-221.184z m505.792-505.984c0-64.256-52.096-116.416-116.416-116.416h-221.12c-64.256 0-116.416 52.16-116.416 116.416v221.184c0 64.32 52.16 116.48 116.416 116.48h221.12c64.32 0 116.416-52.16 116.416-116.48v-221.184z m-506.048 0c0-64.256-52.16-116.416-116.416-116.416H148.416c-64.32 0-116.416 52.16-116.416 116.416v221.184c0 64.32 52.096 116.48 116.416 116.48h221.12c64.256 0 116.416-52.16 116.416-116.48v-221.184z m377.856 742.4c14.784 0 26.752-11.968 26.752-26.816v-198.08c0-14.784-11.968-26.816-26.752-26.816h-198.08c-14.784 0-26.752 12.032-26.752 26.816V736c0 14.784 11.968 26.816 26.752 26.816h198.08z m11.52 101.184h-221.12c-64.256 0-116.416-52.16-116.416-116.416v-221.184c0-64.32 52.16-116.48 116.416-116.48h221.12c64.32 0 116.416 52.16 116.416 116.48V747.584c0 64.256-52.096 116.416-116.416 116.416z"  horiz-adv-x="1024" />

    
    <glyph glyph-name="guadianhua" unicode="&#58930;" d="M1017.856 349.184c10.24-57.344 12.288-139.264-12.288-169.984-40.96-51.2-301.056-51.2-301.056 51.2 0 51.2 40.96 86.016 4.096 137.216-40.96 51.2-112.64 51.2-194.56 51.2s-153.6 0-194.56-51.2c-40.96-51.2 4.096-86.016 4.096-137.216 0-102.4-260.096-102.4-301.056-51.2-26.624 30.72-18.432 112.64-12.288 169.984 6.144 40.96 22.528 81.92 69.632 137.216l0 0c73.728 75.776 188.416 137.216 428.032 137.216l0 0 4.096 0 4.096 0 0 0c243.712 0 354.304-61.44 428.032-137.216l0 0C995.328 431.104 1009.664 390.144 1017.856 349.184z"  horiz-adv-x="1026" />

    
    <glyph glyph-name="guanliyuan" unicode="&#58933;" d="M770.438-68.023c-13.166 0-39.01-19.505-45.348-25.844l-6.34-6.339h110.202c-6.339 0-6.339 6.34-6.339 6.34-13.165 6.338-39.497 25.843-52.175 25.843z m-169.204 45.836s6.34 13.166 6.34 19.505c0 32.67-25.844 52.175-52.176 52.175-13.166 0-25.844 13.166-32.67 32.67 0 0-6.34 25.845-6.34 52.176 0 19.505 6.34 45.349 6.34 52.175 0 19.505 13.165 32.67 25.843 32.67 32.67 0 52.176 25.845 52.176 52.176 0 6.339 0 13.166-6.34 19.505-6.338 19.505 0 39.01 13.166 45.348l64.854 32.67h6.339c-6.34 19.506-25.844 32.671-45.349 39.01l-19.505 6.34 13.166 13.165c58.514 45.349 97.524 117.029 97.524 195.048 0 136.533-103.863 247.223-240.396 247.223h-6.34c-136.533 0-247.222-110.69-247.222-247.223 0-78.02 32.67-149.7 97.524-195.048l13.165-14.14-19.504-6.34C159.45 342.065 55.1 192.366 55.1 16.823v-84.358c0-19.505 13.166-32.67 32.67-32.67h585.143l-58.514 32.67c-13.166 12.678-19.505 32.183-13.166 45.348z m266.728-78.019c13.166 0 19.505 6.34 25.844 13.166l-25.844-13.166zM978.164 172.861c-51.688 6.339-90.697 51.688-90.697 103.863 0 13.166 0 19.505 6.339 32.67l-45.349 25.844c-6.339-6.339-13.166-13.166-19.505-13.166-19.504-13.165-39.01-19.504-58.514-19.504s-39.01 6.339-58.514 19.504c0 0-6.34 0-13.166 6.34l-45.348-25.844c0-6.34 6.339-19.505 6.339-32.67 0-52.176-39.01-97.525-91.185-103.864v-64.853c52.175-6.34 91.185-52.175 91.185-103.863 0-13.166 0-25.844-6.34-32.67l45.35-25.844c0 13.166 6.338 19.505 13.165 19.505 19.505 13.165 39.01 19.504 58.514 19.504s39.01-6.339 58.514-19.504c6.34-6.34 13.166-13.166 19.505-13.166l45.349 25.844c-6.34 13.165-6.34 19.504-6.34 32.67 0 52.175 39.01 97.524 91.185 103.863v65.341zM770.438 42.667c-52.175 0-97.524 45.348-97.524 97.523s45.349 91.185 97.524 91.185 97.524-39.01 97.524-91.185c0-58.514-45.836-97.523-97.524-97.523zM770.438 179.2c-25.844 0-45.348-19.505-45.348-45.349 0-25.843 19.504-45.348 45.348-45.348 25.844 0 45.349 19.505 45.349 45.348 0 25.844-19.505 45.349-45.349 45.349z"  horiz-adv-x="1024" />

    
    <glyph glyph-name="maikefengjingyin" unicode="&#59238;" d="M739.705263 247.430737a230.992842 230.992842 0 0 1 21.234526 97.118316v33.145263a33.145263 33.145263 0 1 0 66.290527 0v-33.145263c0-53.194105-13.850947-103.100632-38.265263-146.324211l-49.25979 49.205895z m-65.536-163.624421a297.121684 297.121684 0 0 0-145.408-37.780211v-66.290526h66.290526a33.145263 33.145263 0 0 0 0-66.344421H396.126316a33.145263 33.145263 0 1 0 0 66.344421h66.290526v66.290526a298.522947 298.522947 0 0 0-298.469053 298.522948v33.145263a33.145263 33.145263 0 0 0 66.290527 0v-33.145263A232.178526 232.178526 0 0 1 462.416842 112.370526h66.290526c34.438737 0 67.045053 7.437474 96.36379 20.857263l49.04421-49.421473z m-47.050105 276.264421c0.754526 5.766737 1.077895 11.641263 1.077895 17.623579V643.018105a132.581053 132.581053 0 1 1-265.269895 0v-18.863158L301.271579 685.864421a199.033263 199.033263 0 0 0 393.323789-42.846316v-265.323789c0-25.330526-4.742737-49.583158-13.365894-71.895579L627.119158 360.070737z m-60.577684-168.367158a198.979368 198.979368 0 0 0-269.904842 185.990737V461.662316l66.290526-66.290527v-17.677473a132.634947 132.634947 0 0 1 149.288421-131.610948l54.325895-54.379789zM884.358737-11.695158L134.736842 737.926737l749.621895-749.67579zM903.437474-30.72a26.947368 26.947368 0 0 0-38.265263 0L115.765895 718.740211a27.055158 27.055158 0 0 0 38.265263 38.265263l749.46021-749.514106a26.947368 26.947368 0 0 0 0-38.265263"  horiz-adv-x="1024" />

    
    <glyph glyph-name="icon-test" unicode="&#58994;" d="M510.523195-73.987038c-182.663875 0-367.574035 46.457274-367.574036 135.287666s184.910161 135.287666 367.574036 135.287666 367.574035-46.457274 367.574035-135.287666-184.910161-135.287666-367.574035-135.287666z m0 219.523383c-204.820421 0-316.522086-55.646625-316.522086-84.235717s111.701665-84.235716 316.522086-84.235716 316.522086 55.646625 316.522086 84.235716-111.701665 84.235716-316.522086 84.235717zM515.62839 747.949347m-40.84156 0a40.841559 40.841559 0 1 1 81.683119 0 40.841559 40.841559 0 1 1-81.683119 0ZM954.675154-33.145478a20.42078 20.42078 0 0 0-14.447702 5.973078l-852.567554 852.567554a20.42078 20.42078 0 0 0 28.895404 28.895403l852.567554-852.567554a20.42078 20.42078 0 0 0-14.447702-34.868481zM510.523195 829.632466a316.522086 316.522086 0 0 0 225.343304-538.495962L772.164435 254.88962A367.574035 367.574035 0 0 1 252.455591 774.547413l36.093728-36.093729a315.245787 315.245787 0 0 0 221.973876 91.178782zM510.523195 196.588294A316.266826 316.266826 0 0 0 261.33863 707.924619l-36.348988 36.297936A367.318776 367.318776 0 0 1 741.533266 227.576827l-36.297936 36.348988a314.939476 314.939476 0 0 0-194.712135-67.337521zM510.523195 411.006481a102.103899 102.103899 0 0 0-94.088743 141.771264l-37.880546 37.931598a153.155848 153.155848 0 0 1 209.823511-209.568252l-37.931598 37.880546a101.746535 101.746535 0 0 0-39.922624-8.015156zM510.523195 615.214279a102.103899 102.103899 0 0 0 73.770067-172.504537l36.093728-36.14478A153.155848 153.155848 0 0 1 403.977776 622.974175L440.326764 586.727291a101.593379 101.593379 0 0 0 70.196431 28.486988z"  horiz-adv-x="1024" />

    
    <glyph glyph-name="iconfont-zhutizuizhong-" unicode="&#58928;" d="M558.4 171.2c27.2 4.8 52.8 12.8 76.8 24 8 3.2 14.4 8 22.4 11.2 12.8 6.4 24 16 35.2 24 73.6 59.2 116.8 152 105.6 256-8 68.8-40 131.2-89.6 177.6 0 0 0 1.6-1.6 1.6-43.2 40-99.2 67.2-161.6 75.2C371.2 761.6 224 625.6 224 456c0-75.2 28.8-144 76.8-195.2 9.6-11.2 20.8-20.8 32-28.8s24-17.6 35.2-24c8-4.8 14.4-8 22.4-11.2 24-11.2 49.6-19.2 75.2-24 8-1.6 14.4-8 14.4-16v-32c0-8-6.4-16-14.4-16l-137.6-12.8c-4.8 0-8-3.2-8-8v-16c0-4.8 3.2-8 8-8h368c4.8 0 8 3.2 8 8v16c0 4.8-3.2 8-8 8l-137.6 11.2c-8 0-14.4 8-14.4 16v32c0 8 6.4 16 14.4 16zM264 408c-3.2 16-4.8 30.4-4.8 48 0 139.2 113.6 252.8 252.8 252.8 16 0 32-1.6 48-4.8 116.8-22.4 204.8-124.8 204.8-248 0-68.8-27.2-131.2-72-176-11.2-11.2-22.4-20.8-35.2-30.4-40-28.8-91.2-44.8-144-44.8s-104 16-144 44.8c-12.8 9.6-25.6 19.2-35.2 30.4-36.8 35.2-60.8 78.4-70.4 128zM512 480c-17.6 0-32-14.4-32-32s14.4-32 32-32 32 14.4 32 32-14.4 32-32 32zM764.8 456c0-68.8-27.2-131.2-72-176-11.2-11.2-22.4-20.8-35.2-30.4-40-28.8-91.2-44.8-144-44.8s-104 16-144 44.8c-12.8 9.6-25.6 19.2-35.2 30.4-33.6 35.2-57.6 80-67.2 129.6 27.2-102.4 121.6-176 232-176 132.8 0 240 107.2 240 240 0 110.4-75.2 203.2-176 232 112-24 201.6-126.4 201.6-249.6zM512 288c-88 0-160 72-160 160s72 160 160 160 160-72 160-160-72-160-160-160z m0 288c-70.4 0-128-57.6-128-128s57.6-128 128-128 128 57.6 128 128-57.6 128-128 128z"  horiz-adv-x="1024" />

    
    <glyph glyph-name="shexiangtou" unicode="&#58929;" d="M825.4 601.1c-17.1 40.5-41.7 76.9-72.9 108.1s-67.6 55.8-108.1 72.9C602.5 799.9 557.9 808.9 512 808.9c-45.9 0-90.5-9-132.4-26.7-40.5-17.1-76.9-41.7-108.1-72.9s-55.8-67.6-72.9-108.1c-17.7-41.9-26.7-86.5-26.7-132.4s9-90.5 26.7-132.4c17.1-40.5 41.7-76.9 72.9-108.1s67.6-55.8 108.1-72.9c24.3-10.3 49.4-17.6 75.2-22v-134.3H339.7c-11 0-20-9-20-20s9-20 20-20h344.6c11 0 20 9 20 20s-9 20-20 20H569.2V133.4c25.8 4.4 50.9 11.7 75.2 22 40.5 17.1 76.9 41.7 108.1 72.9s55.8 67.6 72.9 108.1c17.7 41.9 26.7 86.5 26.7 132.4s-8.9 90.4-26.7 132.3z m-296.2-602h-34.4V129c5.7-0.3 11.4-0.4 17.2-0.4 5.8 0 11.5 0.1 17.2 0.4v-129.9z m195 257.4c-56.7-56.7-132.1-87.9-212.2-87.9s-155.6 31.2-212.2 87.9c-56.7 56.7-87.9 132.1-87.9 212.2s31.2 155.6 87.9 212.2c56.7 56.7 132.1 87.9 212.2 87.9 80.2 0 155.6-31.2 212.2-87.9 56.7-56.7 87.9-132.1 87.9-212.2s-31.2-155.5-87.9-212.2zM512 599.4c-97.4 0-176.6-79.2-176.6-176.6S414.6 246.3 512 246.3s176.6 79.2 176.6 176.6S609.4 599.4 512 599.4z m0-313.1c-75.3 0-136.6 61.3-136.6 136.6S436.7 559.4 512 559.4s136.6-61.3 136.6-136.6S587.3 286.3 512 286.3zM512 683.9m-37.6 0a37.6 37.6 0 1 1 75.2 0 37.6 37.6 0 1 1-75.2 0Z"  horiz-adv-x="1024" />

    
    <glyph glyph-name="jiantou" unicode="&#58940;" d="M487.232 840.32A32 32 0 0 0 532.48 885.568l478.72-478.72a32 32 0 0 0 0-45.248l-478.72-478.72a32 32 0 1 0-45.248 45.248l456.128 456.064L487.232 840.32zM32 340.8h896a32 32 0 1 1 0 64H32a32 32 0 1 1 0-64z"  horiz-adv-x="1024" />

    
    <glyph glyph-name="weidenglu" unicode="&#58927;" d="M512 384m-448 0a448 448 0 1 1 896 0 448 448 0 1 1-896 0ZM459.8 829C259.9 806.5 95.7 646.4 68.3 447.2c-22-160.3 41.2-306.6 150.4-401.3 29.5 143.4 115 255 222.8 289.5 11.8 3.8 11.8 20.2 0.6 25.5-61.8 29.1-102.4 95.4-92 170.4 9.4 68.2 64 125.4 131.7 137.5 103.6 18.5 193.6-60.6 193.6-160.8 0-65.4-38.6-121.4-94.1-147.3-11-5.1-10.6-21.6 1-25.3C690.2 301 775.7 189.3 805.2 45.9 899.9 128 960 248.9 960 384c0 264.6-229.4 475.6-500.2 445z"  horiz-adv-x="1024" />

    
    <glyph glyph-name="shezhi" unicode="&#58941;" d="M1064.504427 492.179538a60.472282 60.472282 0 0 1-35.34269 42.330597l-54.895394 24.188913a112.209679 112.209679 0 0 0-66.51951 114.830145l6.517568 59.531602a60.337899 60.337899 0 0 1-19.082364 51.737397A537.128249 537.128249 0 0 1 707.986727 893.110769a60.539474 60.539474 0 0 1-54.492245-9.272417l-48.848166-35.678646a112.680019 112.680019 0 0 0-132.904638 0L423.296661 883.569586a60.606665 60.606665 0 0 1-54.290671 9.4068 516.970822 516.970822 0 0 1-187.867224-108.245385 60.337899 60.337899 0 0 1-19.015173-51.603014l6.450377-59.598794a112.209679 112.209679 0 0 0-66.385128-114.830145l-55.432925-24.390487a60.337899 60.337899 0 0 1-35.342689-42.397789 534.440592 534.440592 0 0 1 0.47034-215.953239 60.472282 60.472282 0 0 1 35.342689-42.330598l54.895394-24.188913a112.209679 112.209679 0 0 0 66.51951-114.830144l-6.517568-59.464411a60.337899 60.337899 0 0 1 19.082365-51.737397 537.128249 537.128249 0 0 1 187.195309-108.379768 60.539474 60.539474 0 0 1 54.492245 9.272416l48.848166 35.678647a112.680019 112.680019 0 0 0 132.904638 0l48.445017-35.409881a60.606665 60.606665 0 0 1 54.290672-9.406799 516.970822 516.970822 0 0 1 187.867223 108.245385 60.337899 60.337899 0 0 1 19.015173 51.603014l-6.517568 59.598794a112.209679 112.209679 0 0 0 66.51951 114.830144l55.298543 24.390488a60.337899 60.337899 0 0 1 35.342689 42.397789 534.440592 534.440592 0 0 1-0.47034 215.953239zM538.193997 155.5505a228.450844 228.450844 0 1 0 228.450844 228.450844 228.450844 228.450844 0 0 0-228.450844-228.450844zM384.5944 384.068535A153.599597 153.599597 0 1 1 538.193997 537.668132 153.599597 153.599597 0 0 1 384.5944 384.001344zM384.5944 384.068535A153.599597 153.599597 0 1 1 538.193997 537.668132 153.599597 153.599597 0 0 1 384.5944 384.001344z"  horiz-adv-x="1075" />

    
    <glyph glyph-name="leftMenu" unicode="&#58920;" d="M316.71771875 353.76492186999997a46.0215 46.0215 0 0 0-65.08785937 1e-8 46.0215 46.0215 0 0 0-1e-8 65.08785937l455.65439063 455.655375a46.0215 46.0215 0 0 0 65.08884375 0 46.0215 46.0215 0 0 0 0-65.08884375l-455.655375-455.65439063zM772.37309375-41.427187499999945a46.0215 46.0215 0 0 0-1e-8-65.08785937 46.0215 46.0215 0 0 0-65.08884374 0l-455.65439063 455.65439062a46.0215 46.0215 0 0 0 0 65.08884375 46.0215 46.0215 0 0 0 65.08785938 0L772.37309375-41.427187499999945z"  horiz-adv-x="1024" />

    
    <glyph glyph-name="chahao" unicode="&#58921;" d="M256 99.555556a28.444444 28.444444 0 0 0-20.053333 48.497777l512.426666 512.426667a28.444444 28.444444 0 1 0 40.106667-40.106667L275.626667 107.52A28.444444 28.444444 0 0 0 256 99.555556zM768 99.555556a28.444444 28.444444 0 0 0-20.053333 8.391111L235.52 620.373333a28.444444 28.444444 0 0 0 40.106667 40.106667l512.853333-512.853333A28.444444 28.444444 0 0 0 768 99.555556z"  horiz-adv-x="1024" />

    
    <glyph glyph-name="jiantou1" unicode="&#58923;" d="M710.381885 414.715287a46.751876 46.751876 0 0 0 66.121472 0 46.751876 46.751876 0 0 0 0-66.121472l-462.887711-462.887712a46.751876 46.751876 0 0 0-66.121472 0 46.751876 46.751876 0 0 0 0 66.121472l462.887711 462.887712zM247.494174 816.179907a46.751876 46.751876 0 0 0 0 66.121472 46.751876 46.751876 0 0 0 66.121472 0l462.887711-462.887712a46.751876 46.751876 0 0 0 0-66.121472 46.751876 46.751876 0 0 0-66.121472 0L247.494174 816.179907z"  horiz-adv-x="1024" />

    
    <glyph glyph-name="dianhua2" unicode="&#59067;" d="M0 896h1024v-1024H0zM607.0784 228.3008l24.576 15.2576c9.6768 5.7856 17.6128 10.1376 25.5488 13.7216 55.808 25.3952 104.96 7.424 169.984-68.608 40.2432-47.0528 52.1728-88.7808 36.6592-125.952-11.5712-27.8016-33.8944-46.9504-73.5744-70.656-2.56-1.536-25.4464-14.848-31.2832-18.432-92.416-57.0368-304.1792 73.472-456.4992 296.4992C149.76 493.7216 110.2336 732.16 203.8784 790.016l12.3392 7.8336 13.4144 8.704C276.992 837.12 307.3024 849.3568 343.2448 843.264c35.84-6.144 66.4064-32.6656 92.16-81.0496 54.4768-102.2464 42.496-150.784-27.5456-194.8672-5.0688-3.2768-22.9376-14.0288-24.576-15.104-17.2032-10.5984 11.8784-81.7664 79.4624-180.736 68.4032-100.0448 125.5936-154.7264 144.2816-143.2064h0.0512z"  horiz-adv-x="1024" />

    
    <glyph glyph-name="jiantou2" unicode="&#58926;" d="M397.515448-127.99959a50.790227 50.790227 0 0 0-40.95986 20.47993L10.239965 352.049977a51.404625 51.404625 0 0 0 0 61.439792L354.302795 875.516998a51.199826 51.199826 0 0 0 81.919722-61.439791L115.097209 383.998669l323.3781-430.078538a51.199826 51.199826 0 0 0-40.959861-81.919721zM972.796692 332.798843H81.919721a51.199826 51.199826 0 0 0 0 102.399652h890.876971a51.199826 51.199826 0 0 0 0-102.399652z"  horiz-adv-x="1024" />

    
    <glyph glyph-name="zantingtingzhicopy" unicode="&#58915;" d="M768 896c-58.563048 0-109.763048-51.2-109.763048-109.714286v-804.571428c0-58.514286 51.2-109.714286 109.714286-109.714286S877.714286-76.8 877.714286-18.285714V786.285714C877.714286 844.8 826.514286 896 768 896zM256 896C197.485714 896 146.285714 844.8 146.285714 786.285714v-804.571428C146.285714-76.8 197.485714-128 256-128c58.563048 0 109.763048 51.2 109.763048 109.714286V786.285714C365.714286 844.8 314.514286 896 256.048762 896z"  horiz-adv-x="1024" />

    
    <glyph glyph-name="weibiaoti-" unicode="&#58917;" d="M606.6688 51.456C106.752-222.5152 58.88-235.8272 51.2 392.4992 56.32 988.16 87.04 988.5696 606.6688 733.5424c501.4528-327.8848 472.32-328.0896 0-682.0864z"  horiz-adv-x="1024" />

    
    <glyph glyph-name="fasong1" unicode="&#58900;" d="M72.29895 363.456518l239.820905-141.600138 495.512313 452.044774-408.312726-462.713277L725.987257 102.474944l219.012915 707.559842z m327.020492-391.472361L508.208714 102.474944l-108.889272 52.90167z m0 0"  horiz-adv-x="1025" />

    
    <glyph glyph-name="fasong" unicode="&#59060;" d="M365.986909 321.442909L9.309091 438.830545 1232.337455 883.572364l31.930181 11.729454-215.598545-1022.464-351.325091 238.638546-191.627636-159.092364 17.268363 303.848727L1219.025455 843.170909z"  horiz-adv-x="1303" />

    
    <glyph glyph-name="xuanze2" unicode="&#58893;" d="M512 881.526072C236.873738 881.526072 13.804965 658.457299 13.804965 383.33103700000004c0-275.126262 223.068773-498.195035 498.195035-498.195035s498.195035 223.068773 498.195035 498.195035c0 275.126262-223.068773 498.195035-498.195035 498.195035z m304.439007-355.03694l-341.536049-334.48153c-1.702815-2.919112-3.770519-5.838223-6.568001-8.635705L452.279843 167.43841299999997c-8.878964-8.878964-19.217484-12.771113-23.231262-8.757334l-162.740468 170.281506c-4.013778 4.013778 0 14.473928 8.757334 23.231262L291.120561 368.127331c8.878964 8.878964 19.217484 12.771113 23.231262 8.757335l121.994536-127.5895 332.048937 325.237676c8.878964 8.878964 23.109633 8.878964 31.988598 0l16.055113-16.055113c8.757335-8.757335 8.757335-23.109633 0-31.988597z"  horiz-adv-x="1024" />

    
    <glyph glyph-name="xuanzecopy" unicode="&#58894;" d="M512 889.263158C789.908211 889.263158 1017.263158 661.881263 1017.263158 384c0-277.908211-227.381895-505.263158-505.263158-505.263158C234.091789-121.263158 6.736842 106.118737 6.736842 384 6.736842 661.908211 234.118737 889.263158 512 889.263158zM427.789474 131.368421c-16.842105 0-33.684211 8.434526-42.118737 16.842105l-134.736842 134.736842c-16.815158 16.842105-16.815158 42.118737 0 58.960843 16.869053 16.842105 42.118737 16.842105 58.960842 0l117.894737-117.894737L789.908211 586.105263c16.842105 16.842105 42.091789 16.842105 58.933894 0 16.842105-16.842105 16.842105-42.118737 0-58.960842L469.881263 148.210526c-8.407579-16.842105-25.249684-16.842105-42.091789-16.842105z"  horiz-adv-x="1024" />

    
    <glyph glyph-name="xuanze1-copy" unicode="&#58882;" d="M524.04224-55.07583999999997c-242.10944 0-439.07584 196.9664-439.07584 439.07072 0 242.10944 196.9664 439.07584 439.07584 439.07584s439.08096-196.9664 439.08096-439.07584C963.11808 141.89056000000005 766.15168-55.07583999999997 524.04224-55.07583999999997zM524.04224 778.86464c-217.728 0-394.86976-177.13664-394.86976-394.86976 0-217.728 177.14176-394.86464 394.86976-394.86464 217.728 0 394.86976 177.13664 394.86976 394.86464C918.912 601.7280000000001 741.77024 778.86464 524.04224 778.86464z"  horiz-adv-x="1024" />

    
    <glyph glyph-name="xuanze" unicode="&#58892;" d="M512 896C229.197 896 0 666.803 0 384s229.197-512 512-512 512 229.197 512 512S794.803 896 512 896m293.683-379.213L474.496 185.702a46.26 46.26 0 0 0-65.485 0l-190.72 190.592a46.31 46.31 0 1 0 65.51 65.51l158.004-157.823L740.198 582.4a46.285 46.285 0 0 0 65.485 0 46.387 46.387 0 0 0 0-65.613m0 0z"  horiz-adv-x="1024" />

    
    <glyph glyph-name="shexiangtou_guanbi" unicode="&#60581;" d="M106.912 743.904A32 32 0 1 0 149.12 792.096l768-672a32 32 0 0 0-42.176-48.192l-768 672zM732.672 433.6l-37.056 52.16 172.416 122.432a64 64 0 0 0 101.056-51.648l2.624-302.592a63.904 63.904 0 0 0-20.16-47.2l-43.84 46.656-2.624 302.592-172.416-122.432z m-34.72 54.016l35.616-53.184c-10.752-7.2-24.32-12.16-37.216-12.16a64 64 0 0 0-64 64V608a32 32 0 0 1-32 32h-205.952V704h205.952a96 96 0 0 0 96-96v-121.28c0.416 0.224 1.088 0.544 1.6 0.896zM632.32 288h64v-97.376a96 96 0 0 0-96-96H144a96 96 0 0 0-96 96V608a96 96 0 0 0 96 96h96v-64h-96a32 32 0 0 1-32-32v-417.376a32 32 0 0 1 32-32h456.32a32 32 0 0 1 32 32V288z"  horiz-adv-x="1024" />

    
    <glyph glyph-name="ziyuan1" unicode="&#58943;" d="M736.829664 415.30028a18.969982 18.969982 0 0 1-18.969982-18.969981v-23.902178h-11.192289l50.270452-40.595761v63.928839a18.969982 18.969982 0 0 1-20.108181 19.539081zM741.38246 246.277742l-32.628369 26.368275a215.119594 215.119594 0 0 0-421.892397 59.565743H314.557868V372.42812100000003H286.861694v23.333078a18.969982 18.969982 0 1 1-39.078162 0v-63.549439a254.197757 254.197757 0 0 1 234.658675-253.249258v-63.739139c-69.999233-3.604297-137.722068-25.609476-137.722068-64.118539v-24.471276c0-30.162271 70.378633-54.633548 157.26115-54.633548s157.450849 24.471277 157.450849 54.633548v24.471276c0 37.939964-67.912535 60.514242-137.911768 64.118539v63.549439a254.766856 254.766856 0 0 1 219.86209 167.50494z m-101.489403-295.172918a15.175985 15.175985 0 0 0-2.276398-7.018893c-11.381989-18.969982-62.79064-37.939964-135.63537-37.939964s-124.063681 18.969982-135.445671 37.939964a14.796586 14.796586 0 0 0-2.086698 7.018893c0 17.262683 44.200058 40.785461 117.993287 44.389758v-27.506474a16.883284 16.883284 0 0 1 16.883284-16.883284H504.257686a16.883284 16.883284 0 0 1 16.693585 16.883284v27.506474c74.552029-3.604297 118.941786-27.127074 118.941786-44.389758zM359.327025 627.953777h-6.449794v5.121895l6.449794-5.121895zM439.570048 627.953777h-50.839551l47.045555-37.939964h3.793996a18.969982 18.969982 0 1 1 0 37.939964zM509.758981 895.999621h-15.365685A179.456028 179.456028 0 0 1 314.557868 716.733292V687.32982l40.595761-32.628369h84.03702a18.969982 18.969982 0 0 1 0 37.939964H352.497832V716.733292a20.108181 20.108181 0 0 1 2.845497 2.845497h45.907356a18.969982 18.969982 0 0 1 0 37.939964h-42.30306A141.895464 141.895464 0 0 0 494.393296 858.059657h15.365685a141.705764 141.705764 0 0 0 135.445671-100.540904h-40.975161a18.969982 18.969982 0 1 1 0-37.939964h47.045555v-26.747674h-84.985519a18.969982 18.969982 0 0 1 0-37.939964h84.985519v-26.747674h-84.985519a18.969982 18.969982 0 0 1 0-37.939964h84.985519v-26.937374h-84.985519a18.969982 18.969982 0 0 1 0-37.939964h84.985519V497.630002h-84.985519a18.969982 18.969982 0 0 1-11.761389-3.983697L596.641498 459.690038h54.633548v-44.010358l37.939964-30.541671V716.733292A179.456028 179.456028 0 0 1 509.758981 895.999621z m141.136665-576.687449a141.516065 141.516065 0 0 0-141.136665-134.117772h-15.365685A141.895464 141.895464 0 0 0 352.497832 326.900165v132.789873h86.692817a18.969982 18.969982 0 0 1 18.969982 14.796586L429.326258 497.630002H352.497832v27.506473h43.441258L314.557868 590.772613V326.900165a179.645728 179.645728 0 0 1 179.456028-179.456028h15.365686a180.025128 180.025128 0 0 1 176.041431 143.982162zM439.570048 627.953777h-50.839551l47.045555-37.939964h3.793996a18.969982 18.969982 0 1 1 0 37.939964zM913.819595 156.17032800000004a18.969982 18.969982 0 0 0-14.796586-7.018893 18.969982 18.969982 0 0 0-11.951089 4.173396l-198.42601 160.106647-37.939964 30.162271-224.414885 181.542726-47.045555 37.939964L352.497832 584.322819l-37.939964 30.54167L112.906961 777.816634a18.969982 18.969982 0 0 0-2.845498 26.747674A18.969982 18.969982 0 0 0 124.858049 811.583201a18.969982 18.969982 0 0 0 11.951089-4.173396L314.557868 663.807043l37.939964-30.731371v-5.121895h6.449793l47.045555-37.939964 33.387169-26.937374 18.969981-14.606886 89.728015-72.465331 18.969981-15.555385 84.22672-67.912535 37.939964-30.541671 221.759087-178.886929a18.969982 18.969982 0 0 0 2.845498-26.937374z"  horiz-adv-x="1024" />

    
    <glyph glyph-name="maikefeng" unicode="&#58937;" d="M741-41.8c0-12.1-9.8-22-22-22H305c-12.1 0-22 9.8-22 22 0 12.1 9.8 22 22 22h185V95.1c-63.8 4.9-126 31.3-173.9 79.1l-0.2 0.1c-25.6 25.5-46.2 56.1-60.3 90.2-13.6 32.7-21.1 68.6-21.1 106.1V512.1l0.1 0.5v0.5l0.1 0.6 0.1 0.5 0.1 0.5 0.1 0.6 0.1 0.5 0.1 0.5 0.2 0.5v0.2l0.1 0.5 0.2 0.5 0.1 0.5 0.2 0.5 0.2 0.5v0.1l0.2 0.4v0.1l0.2 0.4v0.1l0.3 0.4 0.2 0.5 0.2 0.4 0.2 0.5 0.3 0.5 0.2 0.4 0.3 0.5 0.3 0.4 0.3 0.5 0.3 0.4 0.3 0.4v0.1l0.3 0.4 0.3 0.4 0.3 0.4 0.4 0.3 0.3 0.4 0.4 0.4 0.4 0.3 0.4 0.3 0.5 0.3 0.4 0.3 0.5 0.3 0.4 0.3 0.5 0.2v0.1l0.4 0.2 0.5 0.3 0.4 0.2 0.5 0.2 0.4 0.2 0.5 0.2 0.5 0.2 0.5 0.2 0.5 0.2 0.5 0.2 0.5 0.2 0.5 0.2 0.5 0.1 0.5 0.1 0.5 0.1 0.5 0.1 0.5 0.1 0.6 0.1h0.5v0.1h0.5v0.1h77.2V651.7c0 49.4 20.3 94.4 52.9 127 32.6 32.6 77.6 52.8 127 52.8 49.5 0 94.5-20.2 127-52.8 32.7-32.6 52.9-77.6 52.9-127v-118.4h75.5c12.2 0 22-9.9 22-22v-140.9c0-37.5-7.5-73.3-21-106.1a278.96 278.96 0 0 0-60.1-90.2l-0.2-0.1c-48-47.9-110.3-74.3-174-79.2V-20h185c12.6 0.2 22.4-9.6 22.4-21.8zM278.5 370.6c0-31.7 6.3-61.8 17.7-89.2 11.9-28.6 29.3-54.3 50.8-75.9l0.2-0.1v-0.1c44.4-44.3 103.5-66.7 163-67.2 0.6 0.1 1.2 0.1 1.9 0.1h0.6c59.9 0.1 119.7 22.5 164.4 67.1v0.1l0.1 0.1c21.6 21.6 39 47.3 50.7 75.7 11.3 27.3 17.5 57.3 17.6 88.9V489.5H692v-118.3c0-49.5-20.2-94.6-52.9-127.1-32.6-32.6-77.6-52.9-127.1-52.9-49.4 0-94.4 20.2-127.1 52.9v0.1c-32.6 32.6-52.9 77.6-52.9 127V489.5h-53.5v-118.9zM376.1 434.1h44.4c12.1 0 22-9.8 22-22s-9.9-22-22-22h-44.4v-18.9c0-37.4 15.3-71.4 39.9-96.1l0.1 0.1c24.7-24.6 58.7-40 96-40 37.4 0 71.4 15.3 96 40 24.7 24.6 40 58.6 40 96v18.9h-44.5c-12.2 0-22 9.9-22 22s9.9 22 22 22H648v55.4h-38.8c-12.2 0-22 9.9-22 22s9.8 22 22 22H648v55.4h-44.5c-12.2 0-22 9.8-22 22 0 12.1 9.9 22 22 22H648V652c0 37.4-15.3 71.4-39.9 95.9-24.7 24.6-58.7 39.9-96.1 39.9-37.4 0-71.4-15.3-96.1-39.9-24.6-24.6-39.8-58.5-39.8-95.9v-19.1h44.4c12.1 0 22-9.9 22-22s-9.9-22-22-22h-44.4v-55.4h38.7c12.1 0 22-9.9 22-22 0-12.2-9.8-22-22-22h-38.7v-55.4z"  horiz-adv-x="1024" />

    
    <glyph glyph-name="linkman-contacts_ico" unicode="&#58982;" d="M773.69 232.5c1.911 3.668 3.031 8.010 3.031 12.614 0 10.734-6.092 20.044-15.007 24.664-57.782 29.835-125.178 49.625-196.56 55.241 187.285 36.152 252.395 137.312 252.395 253.462 0.010 168.45-137.070 305.52-305.55 305.52s-305.55-137.070-305.55-305.56c0-115.66 64.61-216.49 159.61-268.37-192.31-49.98-330.81-198.52-353.87-395.070-0.12-0.969-0.188-2.091-0.188-3.229 0-14.204 10.66-25.918 24.415-27.578 1.079-0.134 2.174-0.203 3.284-0.203 0.038 0 0.076 0 0.114 0 14.186 0.017 25.884 10.673 27.541 24.42 25.183 214.66 208.043 364.48 444.643 364.48 79.37 0 157-18.17 224.34-52.52 3.664-1.902 8-3.017 12.596-3.017 10.735 0 20.049 6.085 24.681 14.993zM262 578.44c0 137.86 112.14 250 250 250s250-112.14 250-250-112.14-250-250-250-250 112.15-250 250zM623.11 134c-0-0.006-0-0.013-0-0.020 0-15.331 12.429-27.76 27.76-27.76 0.007 0 0.014 0 0.021 0l333.329-0c0 0 0 0 0 0 15.342 0 27.78 12.438 27.78 27.78 0 15.342-12.438 27.78-27.78 27.78-0 0-0 0-0 0h-333.33c-0.006 0-0.013 0-0.020 0-15.331 0-27.76-12.429-27.76-27.76 0-0.007 0-0.014 0-0.021zM984.22 50.67h-333.33c-15.342-0-27.78-12.438-27.78-27.78 0-15.342 12.438-27.78 27.78-27.78h333.33c0 0 0 0 0 0 15.342 0 27.78 12.438 27.78 27.78 0 15.342-12.438 27.78-27.78 27.78-0 0-0 0-0 0zM984.22-60.44h-333.33c-15.342-0-27.78-12.438-27.78-27.78 0-15.342 12.438-27.78 27.78-27.78h333.33c0 0 0 0 0 0 15.342 0 27.78 12.438 27.78 27.78 0 15.342-12.438 27.78-27.78 27.78-0 0-0 0-0 0z"  horiz-adv-x="1024" />

    
    <glyph glyph-name="haoyouliebiao" unicode="&#58919;" d="M583 87.8c-5.7 76.4-39.1 147.8-95.4 203.1C447.7 330 399.1 358.3 346 374c47.2 30.8 78.3 82.7 78.3 141.5 0 94.3-80 171-178.2 171-98.3 0-178.2-76.7-178.2-171s80-171 178.2-171c6.8 0 13.5 0.4 20.1 1.1 2.4-1.2 5.1-1.9 7.9-2.2 140.6-13 253.3-123.8 263.6-259.1 0.9-11.4 10.8-20.1 22.7-20.1 13.2 0.1 23.5 10.9 22.6 23.6zM113.3 515.5c0 70.2 59.5 127.3 132.7 127.3 73.2 0 132.7-57.1 132.7-127.3S319.2 388.2 246 388.2c-73.1 0-132.7 57.1-132.7 127.3zM270.4 249H90.6c-12.6 0-22.7 9.8-22.7 21.8 0 12.1 10.2 21.8 22.7 21.8h179.7c12.6 0 22.7-9.8 22.7-21.8 0.1-12.1-10.1-21.8-22.6-21.8zM270.4 158.6H90.6c-12.6 0-22.7 9.8-22.7 21.8 0 12.1 10.2 21.8 22.7 21.8h179.7c12.6 0 22.7-9.8 22.7-21.8 0.1-12-10.1-21.8-22.6-21.8zM270.3 70.2H90.6c-12.6 0-22.7 9.8-22.7 21.8 0 12.1 10.2 21.8 22.7 21.8h179.7c12.6 0 22.7-9.8 22.7-21.8 0-12.1-10.2-21.8-22.7-21.8zM939.2 68.2c-12.1 0-22.1 9.1-22.9 20.7-2.3 32.9-10.3 64.8-23.6 95.1-15.6 35.4-38 67.2-66.5 94.6-28.5 27.3-61.6 48.8-98.6 63.8l-0.3 0.1c-13 5.2-22.2 16.3-24.8 29.5-2.6 13.2 1.9 26.8 11.9 36.2 29.9 28 46.4 65.4 46.4 105.4 0 74.7-58.3 136.5-133.5 146-11.4 1.4-20 10.8-20 21.9 0 13.3 12.2 23.6 25.9 21.9 97.8-12.2 173.5-92.7 173.5-189.7 0-41-13.3-80-38.1-112.4-8.2-10.7-4.6-25.9 7.6-32.2 30.2-15.7 57.8-35.4 82.4-59 32.7-31.4 58.4-67.9 76.3-108.6 15.4-35 24.5-71.7 27.2-109.5 1-13-9.6-23.8-22.9-23.8zM756 64.3c-12.1 0-22.1 9.1-22.9 20.7-2.3 32.9-10.3 64.8-23.6 95.1-15.6 35.4-38 67.2-66.5 94.6-28.5 27.3-61.6 48.8-98.6 63.8l-0.3 0.1c-13 5.2-22.2 16.3-24.8 29.5-2.6 13.2 1.9 26.8 11.9 36.2 29.9 28 46.4 65.4 46.4 105.4 0 74.7-58.3 136.5-133.5 146-11.4 1.4-20 10.8-20 21.9 0 13.3 12.2 23.6 25.9 21.9 97.8-12.2 173.5-92.7 173.5-189.7 0-41-13.3-80-38.1-112.4-8.2-10.7-4.6-25.9 7.6-32.2 30.2-15.7 57.8-35.4 82.4-59 32.7-31.4 58.4-67.9 76.3-108.6 15.4-35 24.5-71.7 27.2-109.5 1-13.1-9.6-23.8-22.9-23.8z"  horiz-adv-x="1024" />

    
    <glyph glyph-name="paishezhong" unicode="&#59059;" d="M266.246918 629.753082m81.910488 0l327.706806 0q81.910488 0 81.910488-81.910488l0-327.706806q0-81.910488-81.910488-81.910488l-327.706806 0q-81.910488 0-81.910488 81.910488l0 327.706806q0 81.910488 81.910488 81.910488ZM512-128C229.236953-128 0 101.215335 0 384 0 666.763047 229.236953 896 512 896c282.763047 0 512-229.236953 512-512 0-282.763047-229.215335-512-512-512z m0 68.247931c245.082925 0 443.752069 198.669144 443.752069 443.752069 0 245.061307-198.669144 443.730451-443.752069 443.730451-245.061307 0-443.730451-198.669144-443.730451-443.730451 0-245.082925 198.669144-443.752069 443.730451-443.752069zM512 896c282.763047 0 512-229.236953 512-512 0-27.887181-2.226651-55.255531-6.507009-81.932106H948.164161c4.972133 26.546867 7.566289 53.936835 7.56629 81.932106 0 245.061307-198.669144 443.730451-443.752069 443.730451V896z"  horiz-adv-x="1032" />

    
    </font>
</defs>
</svg>
